<?xml version="1.0" encoding="utf-8"?>
<!-- Generator: Adobe Illustrator 21.0.0, SVG Export Plug-In . SVG Version: 6.00 Build 0)  -->
<svg version="1.1" id="Layer_1" xmlns="http://www.w3.org/2000/svg" xmlns:xlink="http://www.w3.org/1999/xlink" x="0px" y="0px"
	 viewBox="0 0 409.2 114.7" style="enable-background:new 0 0 409.2 114.7;" xml:space="preserve">
<style type="text/css">
	.st0{fill:#3498DB;stroke:#3498DB;stroke-width:0.75;stroke-miterlimit:10;}
	.st1{fill:#FFFFFF;}
	.st2{fill:none;stroke:#F2A198;stroke-miterlimit:10;}
	.st3{fill:#9B59B6;}
	.st4{fill:#3498DB;}
	.st5{fill:#E67E22;}
	.st6{fill:#E74C3C;}
	.st7{fill:none;}
	.st8{opacity:0.9;}
	.st9{fill:#E71D88;}
	.st10{opacity:0.3;fill:#FFFFFF;enable-background:new    ;}
	.st11{opacity:0.85;}
	.st12{fill:#1D9A4D;}
	.st13{opacity:0.3;fill:#1D9A4D;enable-background:new    ;}
	.st14{opacity:0.32;fill:#FFFFFF;enable-background:new    ;}
	.st15{opacity:0.32;fill:#1D9A4D;enable-background:new    ;}
	.st16{opacity:0.35;fill:#FFFFFF;enable-background:new    ;}
</style>
<title>Asset 3</title>
<g id="Layer_2">
	<g id="Layer_1-2">
		<path class="st0" d="M266.3,71.8c-4.7,0-8.4-1.4-10.9-4.2c-2.6-2.8-3.9-6.7-3.9-11.8c0-5.1,1.3-9,3.9-11.8
			c2.6-2.8,6.3-4.2,11.1-4.2c3.2,0.1,6.4,0.5,9.6,1.3v4c-4.2-1.4-7.4-2.2-9.6-2.2c-2.9-0.2-5.8,1.1-7.6,3.3
			c-1.8,2.2-2.7,5.4-2.7,9.4c0,3.9,1,6.9,2.9,9.2c2,2.3,4.9,3.5,7.9,3.3c3.2-0.1,6.4-1,9.2-2.7v3.7C273.1,71,269.7,71.8,266.3,71.8z
			"/>
		<path class="st0" d="M289.6,71V43.9h-10.8v-3.2h25.8v3.2h-10.8V71H289.6z"/>
		<path class="st0" d="M331.7,70.2c-3.1,1-6.4,1.5-9.6,1.6c-4.8,0-8.5-1.4-11.1-4.1c-2.6-2.7-3.9-6.7-3.9-11.8c0-5,1.3-8.9,3.9-11.7
			s6.3-4.2,11-4.2c3.3,0,6.5,0.5,9.6,1.4v4c-4.2-1.4-7.4-2.1-9.6-2.1c-2.9-0.2-5.8,1.1-7.6,3.3c-1.8,2.2-2.7,5.4-2.7,9.4
			s1,7.2,2.9,9.3c2.1,2.3,5.1,3.5,8.2,3.3c1.6,0,3.2-0.3,4.7-0.8v-9.9h4.3L331.7,70.2z"/>
		<path class="st1" d="M339.3,71V40.7h4.3v27.1h13.7V71H339.3z"/>
		<path class="st1" d="M381.6,71l-3.3-8.4h-12.9l-3.3,8.4h-4l12-30.3h4.3L386.3,71H381.6z M377.1,59.4l-5.2-13.1l-5.2,13.1
			L377.1,59.4z"/>
		<path class="st1" d="M390.7,71V40.7h7.9c3,0,5.4,0.6,7,1.7c1.6,1.1,2.5,3,2.4,5c0,3.7-2.1,6.3-6.2,7.8c5,1.5,7.4,4.3,7.4,8.2
			c0.1,2.2-0.8,4.3-2.5,5.6c-1.7,1.3-4,1.9-7.1,1.9H390.7z M394.9,54h1.4c1.9,0.1,3.8-0.4,5.3-1.5c1.3-1,2-2.5,1.9-4.2
			c0-3-2.3-4.5-6.9-4.5h-1.7V54z M394.9,67.8h0.9c3.2,0,5.2-0.2,6.1-0.6c1.7-0.7,2.8-2.4,2.7-4.2c0-1.8-0.9-3.5-2.4-4.5
			c-1.8-1.2-3.9-1.9-6-1.8H395L394.9,67.8z"/>
		<path class="st2" d="M207.7,109.4"/>
		<path class="st3" d="M141.9,16c2.5-1.9,5.2-3.5,8-4.9c-1,0.6-2.1,1.2-3.1,1.8c0.7-0.4,1.4-0.8,2.2-1.1c0.8-0.3,1.6-0.6,2.4-0.8
			c-0.3,0.6-1.5,0.8-1.5,1.5c-3.8,2-7.8,3.5-11.6,5.3C139,15.6,140.9,16.6,141.9,16z"/>
		<path class="st3" d="M156.3,9.5L155,10C155.4,9.8,155.9,9.6,156.3,9.5z"/>
		<path class="st3" d="M125.3,38.6c-0.1,0.5-0.3,0.9-0.4,1.3C124.9,39.5,125.1,39,125.3,38.6z"/>
		<path class="st3" d="M139,21.7c-0.1,0.2-0.3,0.4-0.5,0.6c-0.8,0.5-1.6,1-2.5,1.5s-1.7,1-2.5,1.6C135.3,24.2,136.9,22.4,139,21.7z"
			/>
		<path class="st3" d="M141.4,21.5c1.6-1.1,3.3-1.9,5.2-2.4C144.8,19.8,143,20.5,141.4,21.5z"/>
		<path class="st3" d="M130.6,50.4c0.1,0,0.2,0,0.3,0c0.1,0,0.1,0,0.2,0v0.7l0.1,0.7c-0.1-0.1-0.3-0.1-0.4-0.2
			C130.7,51,131.2,50.8,130.6,50.4z"/>
		<path class="st3" d="M125.5,38.2L125.5,38.2l0.2-0.5h0.1C125.7,37.8,125.6,38,125.5,38.2z"/>
		<path class="st3" d="M130.5,49.8c0.2-0.1,0.4-0.1,0.6-0.2v0.8h-0.2C130.7,50.2,130.9,49.9,130.5,49.8z"/>
		<path class="st3" d="M132.3,44.2c0-0.2-0.3-0.4-0.4-0.5c0.4-0.3,0.8-0.6,1.2-1c-0.1-0.1,0-0.3-0.1-0.5h0.5c-0.6,0.9-1,1.9-1.4,2.9
			C132.1,44.8,132.2,44.5,132.3,44.2z"/>
		<path class="st3" d="M152.6,62.5c-2.4,0.6-5.1-0.5-7.4,0.6c2.7,0.9,6.5,0.8,7.1,2.6c0.3,0.9-0.7,1.1-2,1c-0.7-0.1-1.4-0.2-2.1-0.3
			c-0.7-0.1-1.3-0.2-2-0.2l0.6,0.4c-0.3-0.2-0.6-0.4-0.9-0.2c0.6,0.4,1.8,0.8,2.1,1.4l-0.6,0.4c0.9,0.7,2,1.2,3.1,1.5
			c1.2,0.2,2.3,0.7,3.3,1.2c-4.2-1.8-8.8-2.3-13.7-3.1c-2.6-0.4-5.1-1-7.5-1.8c-2.6-0.9-4.9-2.2-7-4c-5.1-3.9-8.8-9.3-10.5-15.5
			c-0.1-2,0.2-4,0.8-5.9c0.3-1.8,0.7-3.5,1.2-5.2l0.4-1.3l0.5-1.2l0.5-1.3l0.2-0.6l0.2-0.6c0.4-0.8,0.9-1.5,1.4-2.2s1-1.3,1.5-1.9
			c0.5-0.6,1.1-1.2,1.7-1.7c0.6-0.5,1.1-1.1,1.7-1.6c2.3-2,4.8-3.7,7.2-5.6c1-0.8,3.4-0.2,1.3,1.9c-1.6,1.9-3.4,3.7-5.2,5.4
			c-0.2-0.6,1-1.2,1.1-1.9c-0.8,0.4-1.5,0.9-2.2,1.5c-0.7,0.5-1.4,1.2-2,1.8c0.9-1,1.8-1.8,2.7-2.7c-2.6,2.3-4.9,5-6.8,7.9
			c-0.2,0.3-0.5,0.5-0.8,0.7c-0.3,0.2-0.7,0.5-1,0.7c-0.8,0.6-1.3,1.5-1.2,2.5c0.4-0.6,0.8-1.1,1.2-1.7c0.4-0.5,0.8-1.1,1.3-1.6
			c0.9-0.9,1.7-1.9,2.6-2.7s1.8-1.6,2.6-2.4l1.3-1.2c0.4-0.4,0.8-0.7,1.3-1.1l0,0l1.1-1l1.1-0.9c0.7-0.6,1.4-1.2,2.2-1.7
			c-0.4,0.4-0.8,0.8-1.3,1.1c2.5-1.3,4.7-2.8,6.9-4.2c-2.7,2.8-5.5,5.5-8.5,8c-3,2.7-6,5.6-7.9,9.6c0.5-0.4,0.9-0.9,1.3-1.5
			c0.4-0.5,0.8-1,1.1-1.6c0.3-0.5,0.7-1,1.2-1.5c0.4-0.4,0.9-0.7,1.4-0.9l-1.8,2c-0.6,0.7-1.2,1.4-1.7,2.2s-1.1,1.6-1.6,2.5
			c-0.5,0.9-0.9,1.8-1.3,2.7c0-0.3,0.1-0.6,0.1-0.9c-0.8,1.1-1.2,2.3-1.4,3.6c-0.2,1.3-0.3,2.6-0.4,3.9c0,0.2,0,0.5-0.1,0.7
			c0-0.2,0-0.5,0.1-0.7c0.3-2.3,0.9-4.5,1.8-6.6c-0.2,1.1-0.4,2.2-0.8,3.3c0.5-0.8,1-1.6,1.4-2.4c0.4-1.2,0.9-2.3,1.5-3.4
			c-0.8,1.7-1.2,3.6-1.1,5.4c0.9-2.4,2-4.6,3.6-6.7l-0.9,1.8c-0.3,0.6-0.5,1.2-0.7,1.9c-1.1,2.1-1.8,4.3-2,6.6v-0.3v0.5
			c0,0.5,0,0.9-0.1,1.4s0,0.9,0.1,1.4c0.2,0.8,0.5,1.6,1,2.3c0,0.1,0.1,0.3,0.1,0.4c-0.2-0.2-0.5-0.3-0.4,0.2
			c0.1,1.2,0.5,2.3,1.1,3.2c0.3,0.5,0.6,1,0.9,1.6c0.3,0.5,0.6,1.1,0.8,1.7c0.2,0.4,0.4,0.7,0.7,1c0.3,0.3,0.7,0.6,1.1,0.9
			c0,0.2,0.2,0.3,0.4,0.3c0,0,0,0,0,0l0.5,0.3c0.4,0.3,0.8,0.6,1.3,0.8c-0.4-0.3-0.9-0.5-1.3-0.8l-0.4-0.3c0.2-0.1,0.5,0,0.6,0.1
			c-2.6-2.4-4.4-5.5-5.4-8.9c0.2,0.2,0.4,0.4,0.6,0.5c-0.2-0.3-0.5-0.6-0.7-0.9c-0.3-1.1-0.5-2.2-0.7-3.4c0.1,0.3,0.3,0.6,0.6,0.9
			c-0.2-3.2,0.2-6.5,1.2-9.5c1.4-2.6,3.3-5,5.5-7c-0.7,0.4-1.4,0.9-2,1.4c-0.6,0.6-1.2,1.2-1.8,1.9c2.3-3.9,5.5-7.1,9.4-9.5
			c-0.2,1-0.7,2.1-0.5,3c0.3,0.3,1.4-0.5,1,0.2c-0.6,1.1-1.4,2.1-2.2,3.1c-0.7,0.8-0.8,1.9-0.4,2.8c0.2,0.3,1.2,0.3,2.1,0.4
			s1.7,0.2,1.6,0.7s-0.5,0.8-0.8,1.3s-0.7,1-1.1,1.6c-0.3,0.3-0.5,0.5-0.7,0.8c-0.1,0,0,0.2,0.1,0.3s-0.2,0.3-0.3,0.4l-0.2,0.4
			c-0.1,0.2-0.3,0.5-0.4,0.7c-0.2,0.4-0.4,0.8-0.6,1c-0.1,0.2-0.3,0.4-0.4,0.5c-0.2,0.1-0.4,0.1-0.6,0.1c0.1,0.2,0.2,0.3,0.2,0.5
			c-0.3,0.5-0.5,1.1-0.6,1.6c-0.3,0.3-0.5,0.6-0.7,0.9c0.2,0,0.3,0,0.5,0c-0.1,0.7-0.1,1.4,0,2.1c-0.2,0.3-0.4,0.7-0.7,0.9
			c0.6,0.2,1.1,0.7,1.3,1.3c0.2,0.6,0.5,1.2,0.9,1.7l0,0c0.2,0.2,0.4,0.5,0.5,0.7s0.4,0.5,0.6,0.7c0,0.2,0,0.4-0.1,0.5
			c0.3-0.1,0.4,0,0.5,0c0.3,0.4,0.5,1,0.8,1.4c0.1,0,0.5-0.3,0.6-0.2c0.3,0.2,0.6,0.4,1,0.5c0.4,0.2,0.7,0.5,1.1,0.7
			c1.4,0.8,3,1.5,4.5,2.1c0,0.2,0,0.4,0,0.6c0.3-0.2,0.6,0,0.9-0.1c-0.1,0.1-0.1,0.2-0.1,0.3c0.9-0.3,0.9,0.3,1.7,0.5
			c0.2,0,0.3-0.2,0.5-0.3l0.2,0.1c0.8,1,1.7,0.7,2.7,0.7c1,0.2,2,0.4,3,0.6C151.7,61.5,152,62.1,152.6,62.5z"/>
		<path class="st3" d="M131.2,51.9c0.1,0.6,0.2,1.3,0.4,1.9C131.2,53.3,130.6,52.9,131.2,51.9z"/>
		<path class="st3" d="M137.2,36.6c0.5,0.1,1,0,1.4-0.1c-0.4,0.3-0.8,0.6-1.2,1l-1.1,1.1c-0.6,0.7-1.3,1.4-1.8,2.1l0,0
			C135.1,39.4,137.4,38.3,137.2,36.6z"/>
		<path class="st3" d="M130.9,50.3h0.2l0,0C131,50.4,131,50.4,130.9,50.3z"/>
		<path class="st3" d="M135.3,27.5l0.2-0.1c-0.4,0.5-0.8,0.9-1.3,1.4C134.5,28.3,134.8,27.9,135.3,27.5z"/>
		<path class="st3" d="M140.9,23.9c1-0.8,2-1.5,3-2.3c0.7-0.4,1.5-0.7,2.2-1c0.8-0.3,1.5-0.5,2.3-0.6
			C145.9,21.2,143.4,22.5,140.9,23.9z"/>
		<path class="st3" d="M140.8,34.2c0.5-0.2,1-0.3,1.5-0.4c-0.4,0.2-0.8,0.5-1.1,0.8C141.1,34.4,140.9,34.3,140.8,34.2z"/>
		<path class="st3" d="M131.7,31.3L132,31l-0.4,1C131.6,31.9,131.7,31.5,131.7,31.3z"/>
		<path class="st3" d="M145.4,32l-0.9,0.5c0.1-0.2,0.2-0.4,0.3-0.7C144.9,31.9,145.2,32,145.4,32z"/>
		<path class="st3" d="M149.9,28.9c0.4-0.2,0.8-0.5,1.2-0.6l-1.4,1C149.8,29.1,149.8,28.9,149.9,28.9z"/>
		<path class="st4" d="M233.1,61.1v0.2c-0.2-0.6-0.3-1.1-0.4-1.7l-0.5,1.3c-0.1,0.3-0.2,0.7-0.2,1c0.1,0.6,0.6,1,2.2,1.2
			c-0.6,0.1-1.2,0.4-1.6,0.9c-0.3,0.3-0.4,0.5-0.2,0.5c0.1,0.1,0.3,0.2,0.4,0.3c0.1,0.1,0.2,0.2,0.3,0.3c-0.1-0.1-0.2-0.3-0.4-0.4
			c0.1,0.1,0.3,0.3,0.4,0.4c0.5,0.5,0.6,1.3,0.3,1.9c-0.4,0.6-1,1-1.7,1.2c-0.3,0.1-0.6,0.2-0.8,0.4c-0.4,0.2-0.8,0.3-1.2,0.5
			c-0.4,0.2-0.9,0.3-1.4,0.4c-0.4,0.1-0.8,0.2-1.1,0.2l-0.5,0.1h0.6c-0.4,0.6-0.9,1.2-1.4,1.8c0.2,0.2,0.4,0.4,0.7,0.6H226
			c-0.1,0.7-0.8,0.9-1,1.3c0-0.2-0.1-0.3-0.2-0.3c-0.2,0-0.4,0-0.6,0.1l0.2,0.2c-1.5,0.3-3.1,1.1-4.4,1.4c-0.2,0-0.4,0-0.6-0.1
			l-1,0.6c-0.4-0.4-1.5,0-1.2-0.4c-0.3,0.5-1,0.6-1.5,0.9c0,0.3,0.1,0.5,0.3,0.8v0.1v0.1l0,0.4l0.2,0.6c0.1,0.4,0.2,0.8,0.4,1.1
			c0.3,0.7,0.6,1.5,0.9,2.2c0.7,1.5,1.7,2.8,2.9,3.9l0.1-0.1c0.4,0.3,0.9,0.6,1.4,0.9c0.4,0.2,0.8,0.5,0.9,1
			c0.9,0.2,1.7,0.8,2.6,0.6c0.5,0.6,1.1,0.6,1.8,1.2c0.3-0.4,0.9,0.4,1-0.1c0.3-0.8-0.2-0.6,0-1.3l-0.1,0.1c-0.3-1.1-0.6-2.2-1-3.2
			l-0.3-0.7c-0.1-0.2-0.2-0.6-0.2-0.6v-0.3c-0.2,0-0.4-0.2-0.4-0.4c0-0.2-0.1-0.3-0.2-0.4l-0.3-0.4c-0.1-0.1-0.1-0.1-0.2-0.2v-0.1
			c0-0.2,0-0.3,0.1-0.5s0.4,0.2,0.7,0.3c0.1-0.1,0.3-0.2,0.5-0.3c0.1,0,0.2-0.1,0.3-0.2c0,0,0.2-0.1,0.4-0.2l0.5-0.3h-0.1
			c0.7-0.3,1.4-0.1,2.1-0.4c-0.1-0.1,0.1-0.2,0.1-0.3c0.2,0.3,1.1-0.5,2.1-1.3s1.8-1.9,2-1.8c0.1-0.1,0.1-0.2,0.2-0.2
			c0.4-0.2,0.9-0.3,1.3-0.5c0.5-0.2,0.9-0.3,1.4-0.5c0.5-0.2,0.9-0.4,1.3-0.7c0.4-0.3,0.7-0.6,1-1c0-0.5,0-1-0.1-1.5
			c0.4-0.1,0-0.5,0.2-0.8c0.8-0.1,1.1-0.4,1.2-0.6s-0.2-0.3-0.5-0.2c0.1-0.8,0.5-1.5,0.6-2.2c0-0.3-0.1-0.7-0.1-1s0.1-0.4,0.4-0.5
			c-0.1-0.7,0.2-0.5,0.4-1.2c0.4-0.2-0.7-1.7-0.6-1.9l0.1,0.1c0-0.8,0.8-1.4,0.7-2.2c-0.1-2.2-1.2-4.3-2.1-6.1
			c-0.4,0.2,0.3,0.3-0.2,0.7c-0.2-0.6-0.4-1.1-0.6-1.7c-0.2-0.6-0.5-1.2-0.8-1.7c0-0.3,0-0.5,0-0.8c-0.2-0.4-0.3,0-0.5-0.3l0.3-0.3
			c-0.6-0.1-0.2-0.8-0.7-1c-0.1,0.1-0.3,0-0.4-0.1c0.3-0.3-0.4-0.3-0.1-0.6l0,0c-0.1-0.1-0.1-0.1-0.2-0.2s-0.8,0-1.4,0
			c-0.5,0-0.9,0-1.4,0.1l-0.1-0.1c-0.3-0.1-0.5,0.2-0.4,0.3l-0.3-0.2l0,0l-0.3-0.2c0-0.2,0-0.3,0.1-0.4c-0.2,0.1-0.4,0.1-0.6-0.1
			c0.5,0.5,0.9,1.1,1.1,1.7c-0.3,0-0.5-0.3-0.7-0.4c-0.2-0.5-0.6-0.9-1-1.2c-0.1,0-0.3,0.5-0.5,0.2s-0.3,0-0.4-0.3
			c0.3-0.1,0.5,0,0.7,0.1c0.1-0.4-0.5-0.4-0.7-0.5c-0.1,0-0.2,0-0.4,0c-0.2,0-0.3,0-0.5,0c0.2-0.4-0.2-0.3-0.4-0.5
			c-0.2,0-0.4,0.1-0.3,0.2c-0.1,0.4,0.8,0.3,0.5,0.7c-0.1-0.2-0.4-0.2-0.6-0.1c0,0.2,0.1,0.2,0,0.4c-0.2-0.1-0.4,0.2-0.6,0
			c0-0.1,0.1,0,0.2,0c-0.1,0,0.2-0.4,0.6-0.7s0.9-0.7,0.7-0.6c0,0.1-0.4,0.4-0.9,0.7s-0.8,0.6-0.7,0.6s-0.1,0.4,0.1,0.5l0.2-0.3
			c0.2,0.1,0.3,0.4,0.3,0.7c-0.2,0,0.1-0.4,0.4-0.8s0.7-0.7,0.5-0.5l0.1,0.1c-0.2,0.1-0.6,0.2-0.7,0c0,0.2-0.2,0.3-0.4,0.4h-0.1
			c-0.2,0.1-0.4,0.1-0.3,0.4c0.5,0,0.3,0.6,0.2,1.2s-0.2,1.2,0.2,1.3c-0.3-0.5,0.1-0.5,0.4-0.6c0,0.2,0.2,0.4,0.4,0.6
			c0.2,0,0.1-0.2,0.2-0.3c0.2,0.1,0.2,0.3,0.2,0.5c0.2-0.3,0.2,0.2,0.4,0.2s0-0.1,0.2-0.3c0.2,0.1,0.5,0.2,0.7,0.3
			c0,0.4-0.1,0.7-0.3,1.1c-0.3-0.2,0.3-0.5,0-0.6c0,0.6-0.3,0.1-0.5,0.5c0,0.3,0.2,0.3,0.4,0.3V53c0.1,0,0.5,0,0.5,0.3
			c-0.1,0.2-0.1,0.3-0.2,0.3l0.1,0.1c0,0,0.1-0.1,0.1-0.2c0.1-0.1,0.2,0,0.2,0.1s0.3,0,0.6,0s0.7-0.1,0.6-0.1c0.1,0.1,0,0.4,0.2,0.3
			c0.1-0.1-0.3-0.2-0.7-0.2s-0.7,0-0.6,0s0.4,0.1,0.9,0.1s0.9,0.2,0.8,0.3c0.1,0.1,0.2,0.1,0.3,0c0,0,0,0,0,0
			c0.1,0.2-0.3,0.3-0.4,0.5c0,0,0.1-0.1,0.1,0l-0.1,0.3c0.4,0,0.4,0.6,0.9,0.5c-0.3,0.1-0.6,0.2-0.9,0.3l0.1-0.1
			c-0.1,0-0.2,0-0.4,0.1c0,0.2,0.1,0.3,0.4,0.3c0,0.1,0,0.1-0.1,0.2l0.1-0.1c-0.1,0.1-0.1,0.1-0.2,0.2l0,0c-0.4,0.5,0.7,0.3,0.6,0.7
			c0.1,0,0.1,0,0.3,0c-0.1,0.3-0.1,0.7-0.1,1c0.2,0,0.5-0.1,0.6-0.3l0.1,0.3c-0.7,0.2-0.4,0.7-1.1,0.8c-0.1,0.1-0.1,0.3,0.1,0.3
			s0.4-0.2,0.5,0c-0.1,0.2-0.1,0.3-0.2,0.5c-0.2,0.1-0.3,0.2-0.5,0.2c0.4,0.1-0.4,0.4-0.2,0.6s0.3,0.4,0.7,0.3
			C233.7,60.9,233.4,61,233.1,61.1z"/>
		<path class="st5" d="M213,58.3c-2.9,1.8-3,0-4.5,0.2l1-1.4c1.9-1.1,4.9-2.8,5.1-1.7C214.4,56.5,213.9,57.5,213,58.3z"/>
		<path class="st5" d="M212.8,52.7c-0.2,0.2-0.3,0.2-0.5,0.4l-0.2-1.4L212.8,52.7z"/>
		<path class="st5" d="M207,60.4l-1.1,1.1c-0.4,0.1,0.2-0.6,0.1-0.7l-1.6,0.7C206.4,60.3,205.7,59.6,207,60.4z"/>
		<path class="st5" d="M187.5,67c-1.3,0,0.1-1.4,0.2-2c0.8-0.4,1.9-0.3,1.5,0.5C188.6,66,188,66.4,187.5,67z"/>
		<path class="st5" d="M200.1,66.2c-0.2-1.2,2.9-2.7,2-3.3c-0.3-0.3-0.8-0.5-1.2-0.5l-1,1.5c-3.6,2.1,0.6-2.1-2.2-1.2
			c-0.4,0.4-0.7,0.6-0.8,0.9c-0.8,1.2-0.3,1.2,0.7,1.2c-3.1,2.4-3.6-0.9-5.3,0.3c-2.2,1.9,0.3,2.4,0.1,3.4c-1-1.5-6.1,0.2-9.9,2.2
			c-0.8,0.7-1.7,1.2-2.6,1.7c-0.9,0.5-2,0.9-2.9,1.3c-2.1,0.7-4.2,1.6-6.1,2.7c-2.3,0.4-4.7,0.7-7,0.8v-0.3c0,0.1-0.1,0.2-0.1,0.3
			c-0.5-0.2-1-0.3-1.6-0.3h-0.7c-0.2,0-0.5,0-0.7,0c-0.9,0-1.7-0.3-1.2-1.3l-0.3,0.1c-0.6-0.2-0.4-0.4-0.2-0.6s0.6-0.4,0.5-0.7
			c-0.4-0.2-0.4-0.8-0.3-1.3s0.1-0.7-0.8-0.8c0.1-0.1,0.2,0,0.3-0.1c-0.1-0.3-0.1-0.6-0.1-0.9c-0.4-0.1-0.9-0.4-1.4-0.2
			c0.1-0.3-0.4-0.6-0.2-1c0.3-1.2,0.9,0.1,1.3-0.3c0.1-0.8,0.3-1.6,0.5-2.4s0.6-1.6,1-2.4c0.4-0.7,0.9-1.4,1.4-2.1
			c0.5-0.6,1.1-1.2,1.8-1.7c0.3,0.2,0.7,0.2,1,0c0.4-0.2,0.8-0.5,1.2-0.8c0.4-0.3,0.8-0.8,1.1-1.2s0.7-0.7,1-1
			c0.4-0.1,0.7-0.3,1-0.5c0.3-0.2,0.6-0.4,0.9-0.7c0.6-0.5,1-1.2,1.6-1.7c0.5-0.6,1-1.1,1.6-1.6c0.5-0.4,1.2-0.6,1.8-0.7
			c-0.4,0.8-1.2,1.1-1.9,1.6s-1.2,0.8-1,1.3l0.8,0.1c1.3-0.5,3.5-0.8,3.7-2.2c-0.6-0.1-1.2-0.4-1.7-0.9c0.4-0.5,0.3-1,1-1.5
			c1-0.6,2.3-1,2.6-0.3c-0.5,0.5-1.2,0.5-1.7,0.8c0.2,0.9,2,0,2.8,0.1c-0.9-0.7-0.7-1.5-0.7-2.1s-0.2-1.2-2-1
			c0.5-0.4,1.1-0.8,1.6-1.1c0.2-0.5-0.1-0.8-0.6-0.8c-0.3,0-0.7,0-1,0c-0.4,0-0.7,0.1-1.1,0.1c-1.4,0.2-2.7,0.3-1.5-1.3
			c0.1-0.6-0.6-0.9,0.4-1.8c-1-0.2-1.9,0.2-2.5,1c-0.7-0.4-2,0.3-3.1,0.8s-2.2,1.1-2.8,0.4c-0.9,1.3-2.3,2.3-3.8,2.7
			c-1.5,0.4-3,1.1-4.3,2c-3.4,3.2-0.3,1.9-0.4,3.5c-0.2,0.2-0.5,0.3-0.7,0.5c-0.2,0.2-0.4,0.4-0.5,0.7c-0.3,0.4-0.6,0.9-0.8,1.4
			c-0.2,0.4-0.4,0.9-0.5,1.4l-0.2,1.2c-0.6,1-1.6,1.4-1.4,0.5c-0.8,0.9-1.4,1.9-2,2.9c-0.3,0.5-0.6,1-0.9,1.6l-0.8,1.7
			c-0.2,0.6-0.5,1.1-0.7,1.7l-0.7,2.4l-0.5,2.3c-0.1,0.8-0.2,1.7-0.1,2.6c0.2,3.5,1.9,6.7,4.7,8.8c2.9,2,6.5,3,10,2.7
			c0.3,0.1,0.6,0.1,1,0.1s0.7,0,0.9,0.1c0.5,0,1,0,1.5-0.1c0.9-0.1,1.9-0.3,2.8-0.5c1.8-0.5,3.8-0.6,5.7-0.3l-0.7-0.2
			c-0.1-0.2,0.3-0.4,0.6-0.6c-0.7-0.2-1.4-0.4-2-0.6c1.1-0.1,2.2-0.4,3.2-0.8c0.3-0.9,1.8-1.4,3.2-2c0.7-0.3,1.4-0.7,2.1-1.1
			c0.6-0.3,1-0.8,1.2-1.4c5-2.2,3.3-0.6,8.4-2.8c2.4-2.3,5.1-4.5,7.9-6.3c1.1-0.7,2.4-0.8,2.4-0.4c1.2-1,3-2.3,4.3-3.3
			C209.1,61,202.2,64.8,200.1,66.2z"/>
		<path class="st5" d="M162.8,65c0.6,0.6,1.5-0.3,2-0.4l0.1-0.6c0.6-1.2-0.1-1.9-1.1-1.5c0.1,0.4,0.1,0.9-0.2,1.3
			C163.4,64.2,163.1,64.6,162.8,65z"/>
		<path class="st5" d="M160.8,72.2l-0.9,0.3c0.1,0.1,0.3,0.2,0.4,0.3C160.9,72.4,160.8,72.3,160.8,72.2z"/>
		<path class="st5" d="M182.9,44.7c-0.8,0.1-1.7,0.2-2.6,0.2c-0.9,0-1.8,0.2-2.5,0.6l0.9,1.3c2.2,0,4.5,0.4,6.8-0.1
			C186.9,44.8,182.5,46.2,182.9,44.7z"/>
		<path class="st5" d="M177.7,43.3c1.8-1.2,3.9-1.9,6-2c1-0.2,2.1-0.3,3-0.6c1-0.3,1.9-0.7,2.7-1.3c-0.2-0.8-0.9-1.3-1.7-1.4
			c-0.9,0-1.8,0.1-2.7,0.5c-1.9,0.7-3.9,1.8-5.4,1.6c-0.8,0.5-1.4,0.8-2.1,1.2s-1.4,0.9-2.3,1.5C174.1,44,176.7,43.5,177.7,43.3z"/>
		<path class="st5" d="M190.6,41c0.4,0,0.8-0.1,1.2-0.3c0.3-0.3-0.5-0.5-0.9-0.8C190.4,39.9,189.3,40.8,190.6,41z"/>
		<path class="st6" d="M224.6,37c0-2.2-0.2-4.5-0.6-6.7c-0.1-0.4-0.2-0.9-0.4-1.3c-0.2-0.5-0.4-1-0.6-1.4c-0.4-0.8-0.8-1.6-1.4-2.3
			c-1.6-1.7-3.5-3.2-5.5-4.4c-0.6-0.4-1.1-0.7-1.7-1l-1.6-0.9c-1.1-0.5-2.2-1-3.3-1.4c-5.6-1.8-11.3-2.9-17.2-3.3
			c-2.9-0.2-5.9-0.2-8.8-0.1c-0.7,0-1.4,0.1-2.1,0.2s-1.4,0.1-2.1,0.3s-1.4,0.2-2,0.3s-1.4,0.3-2.1,0.5c-0.1-0.6,0.6-1.7-0.4-1.7
			c-4.1,0.1-4.5-1-4.8-2.1c-0.2-0.6,3-0.8,1.9-1.1c1.5-0.4,3.5-0.9,4.8-1.3s1.7-0.6,0.1-0.7c-1.1-0.4-5.1,1.1-6.4,0.6s0.6-2-0.7-2.6
			c-1.1,0.3-3.1,0.9-4.2,1.2c-1.2-0.2,0.5-2-0.5-1.7c-1.9,0.3-3.7,0.7-5.5,1.4c-2.1,0.8-4.2,1.6-6.3,2.6c-0.1-0.3-0.5-0.4-0.6-0.6
			c-0.1-0.1,0-0.3,0.1-0.4c0.3-0.3,0.7-0.6,1.1-0.8c2.5-1.1,4.7-2,7.1-2.8s4.6-1.6,7-2.3s4.7-1.4,7.4-1.9c2.6-0.5,5.2-0.8,7.9-1
			c5.2-0.3,10.4-0.1,15.5,0.6c5.2,0.8,10.3,2.1,15.2,4.1c2.5,1,5,2.2,7.4,3.6c2.3,1.3,4.5,2.8,6.6,4.4c1.2,1,2.4,2,3.5,3.2
			c1.2,1.3,2.2,2.7,3.1,4.2c0.8,1.4,1.5,2.9,2,4.5c0.5,1.6,0.9,3.2,1.1,4.9c0.3,2.8,0.4,5.7,0.1,8.5c-0.1,1.3-0.2,2.6-0.4,3.9
			s-0.4,2.6-0.7,4.1c-0.4,1.5-0.8,3.1-1.4,4.5c-0.6,1.5-1.4,2.9-2.3,4.2c-1.6,2.4-3.5,4.6-5.7,6.5c-1.9,1.6-2.3,1.4-2.1,0.6
			c0.6-1.4,1.3-2.7,2.1-4c-0.6,1.1-1.2,0.4-1.9,1.5c-0.3-0.3-0.3-1.2,0.1-2.3c0.6-1.6,1.4-3.2,2.4-4.7c-0.6,0.9-1.3,1.8-2.1,2.7
			c-1,0.6-0.7-0.6-1.1-1c0.7-0.8,1.4-1.7,1.1-1.8l-0.9-0.7c-0.8,1.1-1.7,2.1-2.7,3.1c0.7-0.7,1.4-1.5,1.2-1.7l-0.9-0.8
			c0.5-0.8,1.3-1.7,2-2.7c0.7-0.8,1.2-1.8,1.5-2.9l-0.8-0.3c-0.5,0.7-0.9,1.7-1.5,2.7c-0.5,0.9-1.2,1.8-1.9,2.6
			c0.4-0.9,0.1-1.1-0.3-1.5c0.7-1.1,1.5-2.1,2.1-3.1c0.7-1.1,1-2.3,0.9-3.5c-0.2,0.8-0.4,1.6-0.7,2.3c-0.4-1-0.1-2.2,0.3-3.8
			c0.2-0.8,0.4-1.8,0.5-2.7C224.5,38.6,224.6,37.8,224.6,37z"/>
		<path class="st4" d="M193.9,79.6h0.2c-0.5,0.1-1,0.1-1.5,0c0.5,0.6,1.2,1,1.9,1.2c0.5,0.1,0.9-0.4,1.2-1.9
			c0.1,0.6,0.3,1.2,0.6,1.7c0.2,0.3,0.4,0.4,0.4,0.2c0.1-0.2,0.3-0.5,0.5-0.7c-0.1,0.1-0.2,0.2-0.4,0.4c0.1-0.1,0.2-0.3,0.4-0.4
			c0.4-0.5,1-0.7,1.6-0.4c0.4,0.2,0.8,0.7,1.3,1.4l0.1,0.1l0.1,0.1c0,0.1,0.1,0.2,0.1,0.2c0.1,0.2,0.3,0.4,0.4,0.7
			c0.2,0.3,0.3,0.6,0.4,0.9c0.1,0.3,0.2,0.5,0.2,0.8c0,0.1,0,0.2,0.1,0.4v-0.5c0.6,0.1,1.2,0.3,1.7,0.5c0.2-0.2,0.4-0.4,0.5-0.7v0.3
			c0.7-0.2,0.9,0.3,1.3,0.4c-0.2,0-0.3,0.2-0.3,0.4c0,0,0,0.1,0,0.1l0.2-0.2c0.2,0.6,0.8,1.2,1.1,1.8c0,0.1-0.1,0.2-0.1,0.3l0.5,0.4
			c-0.4,0.2-0.2,0.6-0.6,0.5c0.7,0.2,0.5,0.7,1.2,0.9c0.7,1.5,1.5,2.9,2.6,4.1l0.2-0.1c0.4,0.5,1.4,0.8,1.2,1.5
			c0.7,0.4,1.1,1.1,2.1,1.2c0.2,0.6,0.7,0.8,1,1.4c0.5-0.2,0.6,0.6,1,0.2c0.6-0.5,0.1-0.5,0.6-0.9h-0.2c0.5-1.7,0.7-3.6,0.4-5.4
			c-0.7-1-0.7-2.3-1.2-3.5c-0.6-1.2-1.3-2.3-2.3-3.2c-0.2-0.2,0-0.5,0.1-0.8c-0.6-1-1.3-2-2-2.9c0,0,0,0,0,0.1
			c-0.4-0.5-0.2-1.2-0.7-1.6c-0.1,0.1-0.2,0-0.3,0c0.2-0.2-0.6-0.8-1.5-1.3s-1.9-0.9-1.8-1.1l-0.2-0.1c-0.2-0.3-0.4-0.7-0.6-1
			c-0.2-0.4-0.4-0.7-0.7-1.1c-0.2-0.3-0.4-0.6-0.6-0.9c-0.2-0.3-0.5-0.5-0.8-0.6c-0.4,0.1-0.8,0.2-1.2,0.4c-0.1-0.3-0.4,0.1-0.6-0.1
			c-0.2-1.5-0.9-1.1-0.6-0.5c-0.6,0-1.2-0.3-1.7-0.4c-0.2,0-0.5,0.1-0.8,0.2s-0.3-0.1-0.4-0.4c-0.5,0.1-0.3-0.2-0.9-0.3
			c-0.1-0.5-1.3,0.7-1.4,0.5l0.1-0.1c-0.6-0.1-1-0.9-1.5-0.9c-1.6-0.2-3.1,0.4-4.4,0.5c0.1,0.5,0.3-0.2,0.4,0.4
			c-0.8,0.1-1.6-0.3-2.4-0.2c-0.2-0.1-0.4-0.2-0.5-0.4c-0.3-0.1-0.1,0.2-0.3,0.2l-0.1-0.4c-0.2,0.4-0.5-0.3-0.7-0.1
			c0,0.2,0,0.2-0.1,0.2c-0.1-0.4-0.2,0.1-0.4-0.3l0,0c-0.1,0-0.1,0-0.2,0c-0.1,0.2-0.6,1.6-0.6,1.8l-0.1-0.1c-0.1,0.1-0.1,0.4,0,0.4
			H185l0,0h-0.2c-0.1-0.1-0.1-0.3-0.1-0.4c0,0.2-0.1,0.3-0.2,0.2c0.4,0.2,0.8,0.5,1.1,0.8c-0.1,0.2-0.3,0-0.4,0.1
			c-0.3-0.2-0.5-0.4-0.9-0.5c0,0,0.1,0.5-0.1,0.3s-0.1,0.1-0.3-0.2c0.1-0.2,0.2-0.2,0.3-0.2c-0.1-0.4-0.3-0.2-0.5-0.3
			c0,0.1-0.2,0.1-0.4,0.2c-0.1-0.4-0.2-0.2-0.3-0.4c-0.1,0-0.1,0.2,0,0.3c0.1,0.4,0.4,0.1,0.4,0.6c-0.1-0.2-0.2-0.1-0.3,0
			c0.1,0.2,0.1,0.2,0.1,0.4c-0.1,0-0.1,0.3-0.3,0.1s0.1,0,0.1,0c-0.1,0,0.3-1.7,0.1-1.5c0.1,0.2-0.3,1.6-0.2,1.5s0.1,0.4,0.2,0.5
			v-0.3c0.1,0,0.3,0.4,0.3,0.6c-0.2,0,0.1-1.7,0-1.4l0.1,0.1c0,0.2-0.2,0.3-0.3,0.1c0.1,0.1,0,0.3-0.1,0.4l0,0c0,0.1-0.2,0.1,0,0.4
			c0.5-0.2,0.4,2.3,0.9,2.3c-0.3-0.4-0.1-0.5,0.1-0.6c0.1,0.2,0.2,0.3,0.4,0.4c0.1-0.1,0-0.2,0-0.3c0.1,0.1,0.3,0.1,0.3,0.4
			c0-0.3,0.2,0.1,0.3,0s0-0.1,0-0.3c0.2,0,0.3,0,0.5,0c0.2,0.3,0.3,0.6,0.4,1c-0.2,0-0.1-0.6-0.3-0.5c0.3,0.5-0.2,0.2-0.1,0.6
			c0.1,0.2,0.3,0.2,0.4,0.1v-0.1c0.1-0.1,0.3-0.3,0.5,0c0,0.2,0.1,0.3,0.1,0.4h0.2c0-0.1,0-0.1-0.1-0.2s0.1-0.1,0.2,0s0.6-1.1,0.6-1
			c0.1,0,0.2,0.3,0.3,0s-0.9,1-0.7,0.9c0.1,0.2,1-1.4,1.1-1c0.1,0,0.2-0.1,0.1-0.3c0.2,0.1,0.1,0.4,0.2,0.6v-0.1l0.2,0.2
			c0.1-0.4,0.6,0,0.7-0.5c0,0.3,0,0.6-0.1,0.9l-0.1-0.1c0,0.1,0,0.3,0,0.4c0.2,0.1,0.3,0,0.4-0.2l0.1,0.2v-0.1
			c0.1,0.1,0.1,0.1,0.1,0.2l0,0c0.2,0.6,0.4-0.5,0.8-0.3c0.1-0.1,0-0.1,0-0.2c0.3,0.2,0.5,0.3,0.8,0.4c0-0.2,0-0.5-0.1-0.6h0.2
			c0,0.7,0.5,0.6,0.4,1.3c0.1,0.2,0.2,0.2,0.3,0s-0.1-0.5,0.1-0.5c0.1,0.1,0.3,0.2,0.4,0.3c0,0.2,0.1,0.3,0.1,0.5
			c0.2-0.3,0.3,0.5,0.5,0.4s0.4-0.2,0.3-0.6C193.8,79,193.9,79.3,193.9,79.6z"/>
		<rect x="178.4" y="94.7" transform="matrix(0.9178 -0.397 0.397 0.9178 -26.5093 80.7916)" class="st7" width="7" height="19.4"/>
		<g class="st8">
			<path class="st9" d="M177.6,95.7c0.4-0.1,0.7-0.1,1.1-0.1c0.1,0,0,0.1,0.1,0.2c0.3-0.1,0.4,0.2,0.6,0.1c0.1,0.2,0.5,0.3,0.6,0.5
				c0.1,0,0.3,0,0.4-0.1c0.1,0.2-0.2,0.2-0.2,0.3c0.5,0.4,0.6,1,1,1.4c-0.1,0-0.1,0-0.2,0s0.1,0.2,0.1,0.3c0.2,0.1,0.4,0.1,0.6,0
				c0,0.1,0,0.3-0.1,0.3l0.4,0.8c0.2,0.1,0.3,0.1,0.5,0.2c-0.1,0.2-0.3-0.2-0.4,0c0,0.2,0.1,0.3,0.3,0.3c0.1,0.3-0.3,0.7,0.2,0.8
				c0.4,0.3,0.7,0.6,0.8,1.1c-0.3-0.3-0.5-0.6-0.6-0.9v0.3c-0.1,0,0-0.2-0.1-0.3c0,0-0.1,0.2-0.1,0.3s0.1,0,0.1-0.1s0,0.1,0,0.1
				c-0.2,0.1-0.2-0.3-0.5-0.2l-0.3,0.1c0.1-0.2,0.3-0.2,0.3-0.4c-0.1,0-0.3-0.3-0.4-0.1c0.1,0.3-0.5,0.5-0.4,0.7s0.2,0,0.2,0.2
				c-0.3-0.1-0.4,0.4-0.7,0.3c-0.1-0.1-0.1-0.3,0-0.4h-0.3c0-0.2-0.2-0.3-0.3-0.4c-0.1,0-0.1,0.2-0.2,0.2c-0.4,0-0.6-0.5-0.8-0.6
				c-0.1,0.2,0,0.3,0,0.4c0-0.4-0.5,0-0.5-0.5c-0.2,0.1,0,0.5-0.3,0.5c0-0.1,0-0.3,0.1-0.3c0-0.1-0.1-0.1-0.2-0.1s0,0.4-0.2,0.3
				c0-0.1,0-0.3,0-0.4c-0.2,0.1-0.3-0.3-0.5-0.1c0.1,0.2-0.1,0.4-0.2,0.4s0.3-0.6-0.1-0.7c0-0.1-0.2-0.2-0.2,0
				c0,0.3-0.3,0.4-0.4,0.6c0-0.2,0.1-0.4,0.2-0.6c-0.2-0.2,0-0.5-0.1-0.8s-0.3,0.1-0.4,0.1c0.2-0.5,0.3-1,0.3-1.5l-0.3-0.1
				c0.3-0.2,0.2-0.4,0.5-0.7c0-0.1-0.1,0-0.2-0.1c0.3-0.1,0.1-0.4,0.4-0.4l-0.1-0.2c0.2,0,0.4-0.2,0.2-0.3
				C177.2,96.1,177.5,96,177.6,95.7z"/>
			<polygon class="st10" points="176.7,97.6 176.7,97.6 176.8,97.6 			"/>
			<path class="st10" d="M176.8,97.7L176.8,97.7L176.8,97.7l-0.2,0.1C176.7,97.9,176.7,97.7,176.8,97.7z"/>
			<path class="st10" d="M177.3,98.2C177.2,98.2,177.3,98.2,177.3,98.2L177.3,98.2z"/>
			<path class="st10" d="M176.6,98.4C176.6,98.4,176.6,98.4,176.6,98.4C176.6,98.6,176.5,98.4,176.6,98.4z"/>
			<polygon class="st10" points="176.7,98.5 176.6,98.4 176.7,98.4 			"/>
			<path class="st10" d="M177,98.5C176.9,98.5,177,98.5,177,98.5L177,98.5z"/>
			<path class="st10" d="M176.8,98.7c0.1,0.1-0.1,0.2-0.1,0.4c0-0.1-0.1-0.3-0.2-0.2C176.8,98.8,176.5,98.6,176.8,98.7z"/>
			<path class="st10" d="M177.1,98.7c-0.1,0-0.1-0.1-0.1-0.1C177,98.7,177.1,98.5,177.1,98.7z"/>
			<polygon class="st10" points="176.9,98.7 176.9,98.7 177,98.7 			"/>
			<path class="st10" d="M176.9,98.8L176.9,98.8L176.9,98.8z"/>
			<path class="st10" d="M176.6,99l-0.1,0.1C176.5,98.9,176.6,98.9,176.6,99z"/>
			<path class="st10" d="M176.9,98.8c0.1,0.1,0.1,0.1,0,0.2c0-0.2-0.2,0.1-0.1-0.1l0,0C176.9,98.9,176.9,98.8,176.9,98.8z"/>
			<path class="st10" d="M177.1,98.8L177.1,98.8L177.1,98.8z"/>
			<polygon class="st10" points="176.7,99.2 176.6,99.1 176.7,99.1 			"/>
			<path class="st10" d="M177,99c0.1-0.1,0,0.1,0.1,0C177,99.1,177,99.1,177,99C176.8,98.9,177,99,177,99z"/>
			<polygon class="st10" points="176.8,99.2 176.8,99.2 176.9,99.2 			"/>
			<polygon class="st10" points="177.3,99 177.3,99.1 177.2,99 177.3,99 			"/>
			<path class="st10" d="M176.8,99.5L176.8,99.5L176.8,99.5L176.8,99.5z"/>
			<path class="st10" d="M177.2,99.3c0,0,0.3,0.1,0.1,0.2L177.2,99.3c0,0.1,0,0.2,0,0.2L177.2,99.3L177.2,99.3c-0.1,0.1-0.1,0-0.1,0
				S177.1,99.3,177.2,99.3z"/>
			<polygon class="st10" points="177.6,99.2 177.6,99.2 177.6,99.2 			"/>
			<polygon class="st10" points="177.1,99.7 177.1,99.6 177.1,99.7 			"/>
			<path class="st10" d="M176.9,99.9L176.9,99.9z"/>
			<path class="st10" d="M177.5,99.7c0,0.1,0,0.1,0,0.2C177.5,99.9,177.4,99.7,177.5,99.7z"/>
			<path class="st10" d="M177.3,100C177.4,100,177.3,99.9,177.3,100L177.3,100L177.3,100z"/>
			<path class="st9" d="M181.9,98.1c0.1,0.1,0,0.2-0.1,0.1s-0.2,0-0.3-0.1S181.8,98.1,181.9,98.1z"/>
			<path class="st9" d="M183.2,99.8c0.2,0.2,0.6,0.1,0.6,0.4c0,0.1-0.1,0.1-0.2,0.1c-0.4-0.2-1-0.3-0.8-0.9
				C183,99.4,183.2,99.7,183.2,99.8z"/>
			<path class="st9" d="M178.2,102.3c0,0.1,0,0.2-0.1,0.2C178.3,102.4,178,102.4,178.2,102.3z"/>
			<polygon class="st9" points="178,102.6 178,102.6 178,102.6 			"/>
			<path class="st10" d="M181.2,101.3c-0.1,0-0.1,0.1-0.2,0.1S181.1,101.3,181.2,101.3z"/>
			<polygon class="st1" points="182.4,100.9 182.4,100.8 182.4,100.8 			"/>
			<path class="st9" d="M180.6,102.5L180.6,102.5C180.5,102.6,180.5,102.5,180.6,102.5L180.6,102.5c-0.1,0.1-0.1-0.1-0.1-0.1
				S180.6,102.4,180.6,102.5z"/>
			<path class="st9" d="M180.4,102.6L180.4,102.6L180.4,102.6z"/>
			<path class="st9" d="M180.5,103.1c-0.1-0.1,0-0.1,0-0.2l0.1,0.1l0.1-0.3C180.7,102.9,180.6,103,180.5,103.1z"/>
			<path class="st9" d="M180.1,103.1c0,0.2,0.1,0.3,0,0.5c-0.2-0.2-0.2-0.4-0.1-0.6L180.1,103.1z"/>
			<polygon class="st10" points="180,103.2 180,103.2 180,103.1 180.1,103.2 			"/>
			
				<rect x="183.3" y="101.8" transform="matrix(0.9178 -0.397 0.397 0.9178 -25.3484 81.1407)" class="st9" width="0" height="0.1"/>
			<path class="st10" d="M180.1,103.3c0,0,0,0.1,0,0.2S179.9,103.3,180.1,103.3z"/>
			<path class="st9" d="M183.2,102L183.2,102L183.2,102z"/>
			<path class="st9" d="M183.7,102.4c-0.1-0.1-0.1-0.2-0.1-0.3L183.7,102.4z"/>
			<path class="st9" d="M183.4,102.2L183.4,102.2L183.4,102.2z"/>
			<path class="st9" d="M182.2,103c-0.2,0-0.1,0.3,0,0.3C182.1,103.2,182.2,103,182.2,103L182.2,103z"/>
			<polygon class="st9" points="182.2,103.1 182.3,103.1 182.3,103.1 			"/>
			<path class="st9" d="M183.9,102.6C183.8,102.6,183.8,102.6,183.9,102.6c-0.1,0.1,0-0.1-0.1-0.1
				C183.8,102.4,183.8,102.5,183.9,102.6z"/>
			<path class="st9" d="M182.3,103.4c0,0.1-0.1,0-0.1-0.1L182.3,103.4c0-0.1-0.1-0.2-0.1-0.2S182.3,103.4,182.3,103.4z"/>
			<path class="st9" d="M182.8,103.8L182.8,103.8c-0.1,0.1-0.1,0-0.2,0S182.7,103.7,182.8,103.8z"/>
			<path class="st9" d="M180.9,105.6C180.9,105.6,180.9,105.5,180.9,105.6C180.8,105.5,180.9,105.5,180.9,105.6z"/>
			<path class="st9" d="M181,105.8L181,105.8z"/>
			<path class="st9" d="M181.1,106.3c0,0.1-0.1,0.1-0.1,0.1S181,106.2,181.1,106.3z"/>
			<path class="st9" d="M184.3,108.4C184.3,108.4,184.3,108.5,184.3,108.4l-0.1-0.2L184.3,108.4L184.3,108.4z"/>
			
				<rect x="184.5" y="108.9" transform="matrix(0.9178 -0.397 0.397 0.9178 -28.1046 82.2207)" class="st9" width="0" height="0.1"/>
			<path class="st9" d="M184.8,108.9L184.8,108.9C184.8,109,184.8,108.9,184.8,108.9C184.8,108.9,184.8,108.9,184.8,108.9z"/>
			<path class="st9" d="M184.7,109.4L184.7,109.4c0,0,0,0.1,0,0.1l-0.2-0.3C184.7,109.3,184.7,109.3,184.7,109.4z"/>
			<path class="st9" d="M184.9,109.7c-0.1,0,0.1-0.2-0.1-0.3C184.8,109.5,185.1,109.5,184.9,109.7z"/>
			<path class="st9" d="M186.6,112.9L186.6,112.9c0,0.1-0.1,0.1-0.2,0.1c0,0,0-0.1,0-0.1C186.5,112.8,186.5,112.8,186.6,112.9z"/>
		</g>
		
			<rect x="164.1" y="83.6" transform="matrix(0.7389 -0.6738 0.6738 0.7389 -14.9941 145.8234)" class="st7" width="33.1" height="17.4"/>
		<g class="st11">
			<path class="st12" d="M195.4,83.8c0.2,0,0.4,0.2,0.2,0.4c0-0.3-0.2-0.2-0.3-0.1l0.1,0.1c-0.1,0-0.2-0.2-0.3-0.1
				c0.2-0.1,0.2-0.4,0-0.4s-0.2,0.1-0.3,0.2h0.1c-0.1-0.1-0.3,0.1-0.4-0.1c-0.5,0.2-0.3,0.8-0.6,1.1c0.2-0.3,0-0.4,0.2-0.7
				c0.2-0.3,0.6-0.6,1-0.6C195.2,83.6,195.7,83.7,195.4,83.8z"/>
			<path class="st12" d="M195.2,85c-0.1,0.2-0.5,0.3-0.6,0.2c0.4,0.3,0.3-0.6,0.7-0.3c0.1-0.2,0.2-0.4,0.4-0.5
				C195.4,84.5,195.6,84.9,195.2,85z"/>
			<path class="st12" d="M194.4,85.1c0,0.1-0.1,0.2-0.2,0.2L194.4,85.1C194.4,85,194.3,85.2,194.4,85.1z"/>
			<path class="st12" d="M194,85.1c0-0.2,0.1-0.1,0.3-0.2L194,85.1z"/>
			<path class="st12" d="M195.4,88.2c-0.1,0.4-0.3,0.7-0.7,0.9l-0.6,0.2c0-0.2-0.1-0.3-0.2-0.2c-0.1,0.1,0,0.3,0.1,0.3
				c-0.1,0-0.1,0.3-0.3,0.2c0.4,0.3,0.5,0.8,0.4,1.2h-0.3c0.3,0.6-0.4,0.7-0.4,1.2c-0.1,1.1-0.8,0.2-0.9,1.2c0-0.2,0-0.6-0.4-0.4
				s0,0.5-0.2,0.7c-0.3-0.2,0.2-1.1-0.5-0.8c-0.2,0.2-0.6,0.2-0.8,0.3c-0.3,0.7-1.3,0.9-1.4,1.8c0.1-0.4-0.3-0.3-0.5-0.4
				c-0.4,0.2-0.4,0.6-0.7,0.9c-0.2-0.1-0.3,0.1-0.4-0.2c0.4-0.4,0.8-0.9,1.1-1.4c-0.2-0.2-0.1-0.6-0.5-0.5c-0.8,0.2-1.9,0.1-2.4,0.4
				c1-0.8,1.8-1.8,2.8-2.7c-0.3-0.6-0.6,0.5-0.9,0.1c0.3-0.3,0-0.6-0.1-0.9l0.9-0.9c0-0.2-0.1-0.2-0.2-0.3c0.1-0.6,1.1-0.2,1.1-0.9
				c0.4-0.2,0.8,0,1.2-0.3c-0.1-0.4-0.3,0.2-0.6,0.1c0-0.2,0.4-0.2,0.4-0.4c-0.4-0.1-0.9,0.3-1.1-0.1c0.3-0.1,0-0.4,0.3-0.6
				c-0.1-0.3-0.3-0.1-0.4,0c0-0.3,0.4-0.2,0.4-0.4c-0.1-0.2-0.4,0.2-0.4-0.2c0.2,0,0.3-0.2,0.4-0.3c-0.1-0.2-0.3,0.1-0.4,0
				c0.8-0.4,1.4-1.4,2.4-1.3c0.4,0,0.8,0.2,1.1,0.5c0,0.3,0.4,0.9,0,1.1c0,0.3-0.2,0.6-0.4,0.8c0.2,0,0.5,0,0.6,0.2
				c-0.4,0.4-1,0-1.5,0.3c0.3,0.1,0.7,0.4,1,0.2c0.4,0.2,0.4,0.8,0.8,0.6c0,0.1,0,0.2,0,0.2c0.2,0,0.3,0.1,0.5,0.1
				c0-0.6,0.5-1.2,1.1-1.2C195.1,87.4,195.4,87.7,195.4,88.2C195.4,88.1,195.4,88.1,195.4,88.2z"/>
			<path class="st10" d="M195.3,88.2c-0.3,0.1-0.2,0.2-0.3,0.4v-0.1c-0.3,0,0,0.5-0.4,0.3c-0.1,0,0.1-0.1,0-0.2s0,0.2-0.1,0.1
				c0.1-0.1,0.1-0.2,0.1-0.4c-0.2-0.1-0.2-0.2-0.4-0.4l0.1,0.2c0-0.2-0.2-0.2-0.3-0.2c0.1-0.2,0.4-0.2,0.6-0.4
				c-0.2,0.2,0.2,0,0.2,0.2c-0.1-0.2,0.1-0.3,0.1-0.2l-0.1,0.1l0.2,0.1l0,0c0.4,0.1-0.3,0.1,0,0.2l0.2-0.2L195.3,88.2z"/>
			<path class="st13" d="M194.8,88.1c0.1,0.1,0.1,0,0.2,0.1c-0.1,0,0,0.1,0,0.1c-0.3,0,0-0.2-0.3-0.3c0-0.1,0.1-0.2,0.2-0.2
				C194.9,88,194.8,87.9,194.8,88.1z"/>
			<path class="st13" d="M194.5,88c0,0,0.2-0.1,0.1-0.2v0.3L194.5,88z"/>
			<path class="st10" d="M191.6,85.1c-0.3,0.1-0.4,0-0.8,0.1c0,0.1,0.2,0.1,0.1,0.3v-0.1c-0.4-0.2-0.1,0.6-0.6,0.4h0.1
				c-0.2,0.2-0.2,0-0.4,0.3c0.1-0.2,0-0.2-0.1-0.3c0.2,0,0.3-0.5,0.6-0.3l-0.1,0.2c0.3-0.1,0.4-0.6,0.5-0.6V85
				c0.2-0.1,0.7,0,0.6-0.2C191.5,84.9,191.5,85.1,191.6,85.1z"/>
			<polygon class="st10" points="193.9,88.2 194.1,88.2 194,88.4 			"/>
			<path class="st10" d="M191.3,85.4L191.3,85.4c-0.1,0.3,0-0.2-0.3-0.2C191.2,85.3,191.2,85.2,191.3,85.4z"/>
			<polygon class="st10" points="191,85.4 190.9,85.4 191,85.4 			"/>
			<polygon class="st10" points="190.4,85.3 190.5,85.1 190.5,85.3 			"/>
			<polygon class="st10" points="190.5,85.8 190.6,85.7 190.6,85.8 			"/>
			<polygon class="st10" points="190.5,86 190.7,85.8 190.6,85.9 			"/>
			<path class="st13" d="M190.2,85.6L190.2,85.6L190.2,85.6z"/>
			<polygon class="st10" points="190.5,86 190.4,86.1 190.4,85.9 190.4,86 			"/>
			<path class="st10" d="M190.5,86.2l-0.2,0.2L190.5,86.2z"/>
			<polygon class="st10" points="189.8,85.7 189.8,85.6 189.8,85.6 			"/>
			<polygon class="st10" points="189.9,86.2 190.1,86.1 190.1,86.1 			"/>
			<path class="st10" d="M189.7,85.8C189.6,85.8,189.7,85.8,189.7,85.8C189.7,85.6,189.7,85.7,189.7,85.8z"/>
			<path class="st10" d="M189.6,86.2v0.2l0.1-0.1c0,0.3-0.2,0.1-0.3,0c0.1-0.1,0.2-0.2,0.4-0.2C189.7,86,189.7,86.1,189.6,86.2z"/>
			<path class="st10" d="M190,86.3C189.9,86.4,190,86.3,190,86.3C190,86.2,190,86.3,190,86.3z"/>
			<path class="st10" d="M189.8,86.6C189.7,86.7,189.8,86.6,189.8,86.6C189.9,86.5,189.8,86.6,189.8,86.6z"/>
			<polygon class="st12" points="187.2,88.1 187.1,88 187.2,88.1 			"/>
			
				<rect x="188.7" y="89.9" transform="matrix(0.7389 -0.6738 0.6738 0.7389 -11.3398 150.6389)" class="st10" width="0.1" height="0"/>
			<path class="st10" d="M188.8,93.3C188.8,93.3,188.8,93.3,188.8,93.3c-0.1,0,0-0.2,0.1-0.2S188.8,93.3,188.8,93.3z"/>
			<path class="st10" d="M188.2,93c0-0.1-0.1-0.2-0.2-0.1C188.1,92.7,188.2,92.8,188.2,93z"/>
			<path class="st10" d="M187.7,93.1L187.7,93.1z"/>
			<path class="st12" d="M185.3,94.6c-0.7,0.3-0.9,1-1.3,1.4c0,0.5-0.3,0.9-0.7,1.1c0.1-0.1,0.4-0.2,0.3-0.4
				c-0.3,0.4-0.3-0.1-0.6,0.3l0.2,0.2c-0.6,0-1.1-0.2-1.5,0.4c-0.4,0.4-0.8,0.7-1.2,1c-0.2,0.2-0.2,0-0.3-0.2
				c0.6-0.9,1.8-1.3,2.1-2.2c0.3-0.6,0.8,0,1.2-0.4c-0.1-0.1-0.1,0-0.1,0c0.2-0.1-0.3-0.3,0.1-0.3c-0.4,0.1-0.8,0-1.1,0.3
				c1.2-0.5,2.4-1.2,3.5-1.9C185.7,94.2,185.2,94.3,185.3,94.6z"/>
			
				<rect x="184.4" y="95.1" transform="matrix(0.7389 -0.6738 0.6738 0.7389 -15.9183 149.0995)" class="st14" width="0.1" height="0"/>
			<path class="st12" d="M181.7,92.6c-0.3,0.5-0.9,0.3-1.3,0.5c0-0.2,0.2-0.3,0.1-0.5c0,0.1,0,0.2,0.1,0.3l0,0
				c-0.1,0-0.1,0.1-0.1,0.1c0.2,0.1,0.5,0.1,0.7,0v-0.2l0.1,0.2c0.2-0.2,0.4-0.3,0.4-0.6c-0.2,0-0.4-0.2-0.4-0.4
				C181.7,92,182,92.3,181.7,92.6z"/>
			<path class="st14" d="M184.2,95.6c-0.1-0.2,0.2-0.1,0.1-0.3C184.4,95.4,184.1,95.5,184.2,95.6z"/>
			<path class="st12" d="M180.8,92.3c0.2-0.1,0.2-0.3,0.5-0.3C180.9,92,181.1,92.3,180.8,92.3z"/>
			<path class="st14" d="M183.8,95.7v-0.1c-0.1,0.1-0.3-0.1-0.4,0.2c0.1,0,0.1,0,0.1,0.1c-0.3,0.1-0.2-0.3-0.1-0.4
				c0,0.2,0.2,0,0.3,0c-0.1-0.1-0.1-0.3,0.2-0.3C184,95.2,183.8,95.4,183.8,95.7z"/>
			<polygon class="st12" points="180.6,92.5 180.7,92.3 180.7,92.4 			"/>
			<path class="st14" d="M183.7,95.7L183.7,95.7z"/>
			<polygon class="st14" points="183.4,96.3 183.4,96.1 183.4,96.2 			"/>
			<path class="st15" d="M183,95.8c-0.1-0.1-0.2,0.1-0.2-0.1C182.9,95.6,183,95.9,183,95.8z"/>
			<path class="st14" d="M182.9,96.2c-0.1-0.2,0-0.1,0.2-0.3L182.9,96.2z"/>
			<polygon class="st14" points="183.5,96.6 183.7,96.6 183.6,96.6 			"/>
			<path class="st14" d="M183.2,96.5L183.2,96.5l-0.1,0.2c-0.3-0.2,0.1-0.2,0.2-0.4C183.2,96.3,183.4,96.4,183.2,96.5z"/>
			<polygon class="st14" points="182.7,96.1 182.8,96.1 182.8,96.2 			"/>
			<polygon class="st14" points="182.9,96.9 182.9,96.9 182.9,97 			"/>
			<path class="st12" d="M181.8,96.4c-0.3,0.3-0.6,0.6-1.1,0.5c-0.1-0.1-0.4-0.1-0.5-0.2c0-0.4,0.2-0.7,0.5-0.9
				c0.2-0.2,0.6-0.2,0.9-0.1C182,95.7,181.9,96.1,181.8,96.4z"/>
			<path class="st12" d="M179,94.1c-0.1,0.1-0.3,0.1-0.4,0c-0.1-0.1-0.1-0.3,0-0.4C178.9,93.4,179.3,93.8,179,94.1z"/>
			<path class="st14" d="M181,96.2l-0.1-0.2C181,96.1,181.2,95.9,181,96.2z"/>
			<polygon class="st14" points="181.8,97.1 182,97.1 182,97.1 			"/>
			<path class="st14" d="M181.1,96.3c0.1,0,0,0.5,0.3,0.2c0,0.2-0.4,0.1-0.4,0.2l0.1-0.2c-0.2,0-0.2,0.2-0.4,0.1v-0.2
				C181,96.5,180.9,96.5,181.1,96.3L181.1,96.3z"/>
			<path class="st14" d="M180.6,96.3l-0.1,0.3c-0.2-0.2,0.2-0.3-0.1-0.5c0.1,0.1,0.3-0.2,0.4,0C180.7,96.3,180.9,96.3,180.6,96.3z"
				/>
			<polygon class="st14" points="181.6,97.5 181.6,97.4 181.6,97.5 			"/>
			
				<rect x="181.3" y="97.4" transform="matrix(0.7389 -0.6738 0.6738 0.7389 -18.3044 147.6463)" class="st14" width="0.1" height="0"/>
			<path class="st12" d="M174.1,91.5c-1.1,0.6-2.3,0.1-3.5,0.1c-0.1-0.2,0-0.3,0.1-0.4c0.5-0.2,1.1,0.1,1.6-0.2
				c0.6-0.2,1.3-0.1,1.9,0.2C174.3,91.2,174.2,91.4,174.1,91.5C174.1,91.5,174.1,91.5,174.1,91.5z"/>
			<path class="st14" d="M180.5,98.2c0.1-0.1,0.2,0.1,0.1,0.1s-0.4-0.2-0.1-0.3V98.2z"/>
			<path class="st14" d="M180.3,98.5c-0.3,0,0.1-0.1-0.1-0.2c0.1,0,0.2,0,0.2,0.1C180.4,98.4,180.4,98.5,180.3,98.5z"/>
			<path class="st12" d="M174.7,95c-0.1,0.3-0.5,0.3-0.8,0.3c0.3-0.2,0.5-0.1,0.6-0.2l0,0C174.7,95,174.7,95,174.7,95
				c0-0.1-0.3-0.1-0.3-0.2c0.2-0.1,0-0.2,0.2-0.3c-0.1-0.2-0.4,0-0.5,0c0.1,0.1-0.3,0.4-0.1,0.7l-0.4,0.1c-0.1-0.2,0.2-0.3,0.1-0.6
				c0.2-0.3,0.5-0.5,0.9-0.4C174.8,94.6,174.8,94.8,174.7,95z"/>
			<path class="st16" d="M174.6,94.8c0-0.1-0.1-0.2,0-0.2V94.8z"/>
			<path class="st12" d="M168,96.8c-0.3,0.5-0.8,0.3-1.2,0.4c0.2-0.2,0.2-0.6,0.5-0.8s0.4-0.2,0.6-0.1S168,96.6,168,96.8z"/>
			<path class="st10" d="M167.8,96.8c-0.2,0.1-0.4,0.2-0.6,0.3c-0.3,0,0-0.4-0.2-0.1c0-0.1,0.2-0.2,0.2-0.4c0.2,0.2,0.4-0.1,0.5-0.2
				C167.9,96.5,167.8,96.7,167.8,96.8z"/>
			<path class="st12" d="M164.6,97.8c-0.3,0.3-0.6,0.4-1,0.3c-0.1-0.2,0.1-0.4,0.3-0.7c0.2,0,0.4-0.2,0.6-0.1
				C164.6,97.5,164.6,97.7,164.6,97.8z"/>
			<path class="st10" d="M164.3,97.4c0,0.1,0.2,0.1,0.1,0.2h-0.1C164.3,97.6,164.3,97.4,164.3,97.4
				C164.3,97.5,164.3,97.4,164.3,97.4z"/>
			<path class="st10" d="M164,97.6c0-0.1,0-0.2,0.1-0.1L164,97.6z"/>
			<path class="st10" d="M164,98c0.1-0.4-0.3,0.1-0.3-0.2l0.1,0.1l0,0c0.1-0.1,0.2,0.1,0.3,0.2L164,98z"/>
			<path class="st12" d="M164.6,95.8c-0.2,0.2-0.6,0.4-0.7,0.1s0.2-0.4,0.4-0.5c0.1,0,0.2,0,0.4,0C164.8,95.6,164.7,95.8,164.6,95.8
				z"/>
			<path class="st10" d="M164.2,95.6c0,0.1,0.2,0.1,0.3,0.2l-0.2,0.2c0.2-0.3-0.2,0.1-0.3-0.2S164.1,95.6,164.2,95.6L164.2,95.6z"/>
		</g>
		<path class="st1" d="M14.8,71.8c-4.7,0-8.4-1.4-10.9-4.2S0,61,0,55.9c0-5.1,1.3-9,3.9-11.8s6.3-4.2,11.1-4.2
			c3.2,0.1,6.4,0.5,9.6,1.3v4c-4.2-1.4-7.4-2.2-9.6-2.2c-2.9-0.2-5.8,1.1-7.7,3.3c-1.8,2.2-2.7,5.4-2.7,9.4c0,3.9,1,6.9,2.9,9.2
			c2,2.3,4.9,3.5,7.9,3.3c3.2-0.1,6.4-1,9.2-2.7v3.7C21.6,71,18.2,71.8,14.8,71.8z"/>
		<path class="st1" d="M30.8,71V40.7h4.2l15.3,23.4V40.7H54V71h-4.2L34.5,47.6V71H30.8z"/>
		<path class="st1" d="M74.9,71.8c-4.7,0-8.4-1.4-10.9-4.2s-3.9-6.7-3.9-11.8c0-5.1,1.3-9,3.9-11.8c2.6-2.8,6.3-4.2,11.1-4.2
			c3.2,0.1,6.4,0.5,9.6,1.3v4c-4.2-1.4-7.4-2.1-9.6-2.1c-2.9-0.2-5.8,1.1-7.7,3.3c-1.8,2.2-2.7,5.4-2.7,9.4c0,3.9,1,6.9,2.9,9.2
			c2,2.3,4.9,3.5,7.9,3.3c3.2-0.1,6.4-1,9.2-2.7v3.7C81.6,71,78.3,71.8,74.9,71.8z"/>
		<path class="st1" d="M90.9,71V40.7h9.2c2.9,0,5.1,0.6,6.7,1.9c1.6,1.4,2.5,3.5,2.3,5.6c0,4-2,6.9-6.1,8.6L113.1,71h-5.3l-8.6-12.8
			h-4V71H90.9z M95.2,55h1.4c5.4,0,8.1-2.1,8.1-6.4c0-3.1-2.3-4.7-6.8-4.7h-2.7V55z"/>
	</g>
</g>
</svg>
