<svg xmlns="http://www.w3.org/2000/svg" preserveAspectRatio="xMidYMid meet" viewBox="0 0 409.16 114.71"><defs><style>.cls-1,.cls-4{fill:#3498db;}.cls-1{stroke:#3498db;stroke-width:0.75px;}.cls-1,.cls-2{stroke-miterlimit:10;}.cls-2,.cls-7{fill:none;}.cls-2{stroke:#f2a198;}.cls-3{fill:#9b59b6;}.cls-5{fill:#e67e22;}.cls-6{fill:#e74c3c;}.cls-8{opacity:0.9;}.cls-9{fill:#e71d88;}.cls-10,.cls-11,.cls-15,.cls-17{fill:#fff;}.cls-10,.cls-14{opacity:0.3;}.cls-12{opacity:0.85;}.cls-13,.cls-14,.cls-16{fill:#1d9a4d;}.cls-15,.cls-16{opacity:0.32;}.cls-17{opacity:0.35;}</style></defs><title>Asset 3</title><g id="Layer_2" data-name="Layer 2"><g id="Layer_1-2" data-name="Layer 1"><path class="cls-1" d="M266.32,71.79q-7.08,0-10.93-4.15t-3.86-11.76q0-7.59,3.93-11.77t11.06-4.18a41.16,41.16,0,0,1,9.56,1.33v4q-6.23-2.15-9.62-2.15a9.28,9.28,0,0,0-7.65,3.34q-2.71,3.34-2.71,9.43,0,5.8,2.89,9.16a9.88,9.88,0,0,0,7.9,3.35,19.62,19.62,0,0,0,9.23-2.65v3.69A21.06,21.06,0,0,1,266.32,71.79Z"/><path class="cls-1" d="M289.6,71V43.9H278.83V40.68h25.84V43.9H293.9V71Z"/><path class="cls-1" d="M331.74,70.21a35.65,35.65,0,0,1-9.62,1.58q-7.24,0-11.1-4.12t-3.87-11.81q0-7.55,3.92-11.74t11-4.19a36.36,36.36,0,0,1,9.64,1.37v4q-6.28-2.13-9.62-2.13a9.29,9.29,0,0,0-7.64,3.34q-2.72,3.34-2.72,9.41t2.91,9.34a10.26,10.26,0,0,0,8.16,3.33,16.1,16.1,0,0,0,4.66-.76V57.93h4.29Z"/><path d="M339.29,71V40.68h4.31V67.81h13.66V71Z"/><path d="M381.61,71l-3.3-8.41H365.45L362.11,71h-4l12-30.35h4.27L386.27,71Zm-4.55-11.61-5.17-13.08L366.7,59.42Z"/><path d="M390.66,71V40.68h7.88q4.55,0,7,1.72a5.71,5.71,0,0,1,2.43,5q0,5.52-6.23,7.85,7.44,2.28,7.44,8.22a6.77,6.77,0,0,1-2.46,5.64Q404.23,71,399.6,71Zm4.27-17h1.37a8.52,8.52,0,0,0,5.34-1.48,5,5,0,0,0,1.9-4.16q0-4.47-6.93-4.47h-1.68Zm0,13.8h.88q4.74,0,6.13-.59A4.16,4.16,0,0,0,404.6,63a5.41,5.41,0,0,0-2.42-4.5,9.88,9.88,0,0,0-6-1.79h-1.21Z"/><path class="cls-2" d="M207.69,109.41"/><path class="cls-3" d="M141.85,16a59.67,59.67,0,0,1,8-4.93c-1,.59-2.06,1.16-3.05,1.78A14.65,14.65,0,0,1,149,11.71a17.6,17.6,0,0,1,2.45-.81c-.31.63-1.51.83-1.49,1.49-3.78,2-7.76,3.49-11.59,5.29C139,15.63,140.9,16.64,141.85,16Z"/><path class="cls-3" d="M156.3,9.53l-1.27.52A4.6,4.6,0,0,1,156.3,9.53Z"/><path class="cls-3" d="M125.29,38.63c-.13.45-.27.9-.41,1.33A4,4,0,0,1,125.29,38.63Z"/><path class="cls-3" d="M139,21.68a5.24,5.24,0,0,1-.47.64c-.82.48-1.64,1-2.46,1.5s-1.66,1-2.49,1.59C135.34,24.17,136.85,22.35,139,21.68Z"/><path class="cls-3" d="M141.39,21.55a14.21,14.21,0,0,1,5.19-2.36A22.39,22.39,0,0,0,141.39,21.55Z"/><path class="cls-3" d="M130.63,50.38a.6.6,0,0,1,.27,0,.31.31,0,0,0,.16,0l0,.68.06.69c-.1-.07-.33-.07-.39-.17C130.67,51,131.17,50.77,130.63,50.38Z"/><path class="cls-3" d="M125.49,38.15l0-.07.17-.45.06,0A3.29,3.29,0,0,1,125.49,38.15Z"/><path class="cls-3" d="M130.53,49.81a3.9,3.9,0,0,0,.56-.2l0,.76-.16,0C130.71,50.22,130.85,49.92,130.53,49.81Z"/><path class="cls-3" d="M132.32,44.21c0-.15-.33-.42-.41-.53a13.63,13.63,0,0,0,1.17-1c-.07-.11,0-.26-.15-.49l.54,0a14.08,14.08,0,0,0-1.37,2.89A2.65,2.65,0,0,1,132.32,44.21Z"/><path class="cls-3" d="M152.62,62.46c-2.37.58-5.08-.47-7.38.59,2.66.87,6.51.83,7.11,2.64.3.91-.68,1.07-2,1-.67-.06-1.43-.17-2.15-.26a10.52,10.52,0,0,0-2-.18l.59.4c-.3-.2-.59-.4-.87-.18.59.4,1.77.77,2.12,1.39l-.55.45a8.49,8.49,0,0,0,3.15,1.46A11.36,11.36,0,0,1,153.93,71c-4.21-1.85-8.76-2.29-13.68-3.1a42.71,42.71,0,0,1-7.51-1.83,21.88,21.88,0,0,1-7-4,29.12,29.12,0,0,1-10.51-15.53,14.72,14.72,0,0,1,.83-5.88,32.9,32.9,0,0,1,1.25-5.16l.43-1.28.5-1.25.5-1.27.25-.64.25-.57c.43-.77.9-1.52,1.39-2.25s1-1.3,1.54-1.92a20.27,20.27,0,0,1,1.65-1.72c.56-.53,1.14-1.11,1.72-1.58,2.33-2,4.78-3.7,7.18-5.64,1-.77,3.37-.22,1.29,1.94a48.24,48.24,0,0,1-5.24,5.4c-.17-.63,1-1.2,1.11-1.87a17.9,17.9,0,0,0-2.24,1.48,13.51,13.51,0,0,0-2,1.83c.87-1,1.76-1.83,2.66-2.69a37.66,37.66,0,0,0-6.84,7.9,2.53,2.53,0,0,1-.81.7c-.32.21-.67.45-1,.71a2.71,2.71,0,0,0-1.15,2.54,19.39,19.39,0,0,1,1.21-1.68c.42-.53.83-1.12,1.27-1.58.88-.9,1.74-1.91,2.63-2.68s1.75-1.65,2.62-2.38l1.28-1.16q.64-.54,1.27-1.11a.23.23,0,0,0,0,0l1.07-1,1.08-.89c.72-.58,1.43-1.17,2.17-1.73a6.6,6.6,0,0,1-1.28,1.12c2.47-1.3,4.66-2.78,6.91-4.16a93.52,93.52,0,0,1-8.54,8c-3,2.68-6,5.6-7.89,9.59a6,6,0,0,0,1.3-1.46c.4-.51.75-1.05,1.11-1.6a7.07,7.07,0,0,1,1.16-1.45,3.53,3.53,0,0,1,1.43-.88l-1.79,2c-.57.73-1.15,1.44-1.72,2.2s-1.1,1.61-1.58,2.47a25.62,25.62,0,0,0-1.31,2.68c0-.31.05-.61.07-.92a8.49,8.49,0,0,0-1.43,3.62c-.25,1.3-.29,2.63-.43,3.91,0,.23,0,.46-.07.69,0-.23,0-.46.07-.69a25.39,25.39,0,0,1,1.79-6.61,21.51,21.51,0,0,1-.76,3.29,14.13,14.13,0,0,0,1.37-2.39A20.4,20.4,0,0,1,123,37.1a11.54,11.54,0,0,0-1.13,5.44,26.08,26.08,0,0,1,3.55-6.69l-.95,1.8c-.26.62-.54,1.24-.74,1.88a18.61,18.61,0,0,0-2,6.61l0-.27v.54c0,.46,0,.93-.06,1.4s0,.94.05,1.41a5.84,5.84,0,0,0,1,2.34c0,.13.07.26.11.39-.25-.2-.47-.28-.42.23a6.9,6.9,0,0,0,1.12,3.22c.27.53.64,1,.91,1.56a12.18,12.18,0,0,1,.85,1.69,3.23,3.23,0,0,0,.67,1,12,12,0,0,0,1.08.88.37.37,0,0,0,.45.28l.53.34a4.72,4.72,0,0,0,1.29.8c-.4-.29-.86-.51-1.29-.8l-.45-.35a.74.74,0,0,1,.64.09,19.14,19.14,0,0,1-5.38-8.92c.21.17.44.41.57.5a10.42,10.42,0,0,1-.68-.89,29.16,29.16,0,0,1-.7-3.38,2.68,2.68,0,0,0,.55.89,24.14,24.14,0,0,1,1.19-9.53,25.82,25.82,0,0,1,5.48-7,11.77,11.77,0,0,0-2,1.41,16.86,16.86,0,0,0-1.76,1.86,28.52,28.52,0,0,1,9.39-9.52c-.19,1-.73,2.06-.52,3,.29.29,1.45-.46,1,.23a20.06,20.06,0,0,1-2.17,3.06,2.61,2.61,0,0,0-.4,2.83c.16.29,1.16.28,2.09.37s1.73.24,1.57.73-.5.78-.84,1.28-.66,1-1.05,1.59a8.28,8.28,0,0,0-.74.82c-.06,0,0,.15.06.32s-.19.28-.26.4l-.17.36A7.37,7.37,0,0,1,133,42c-.22.41-.42.76-.59,1a5,5,0,0,0-.37.55,1.68,1.68,0,0,1-.58.11,2.75,2.75,0,0,1,.24.51,7.55,7.55,0,0,0-.61,1.64,6.88,6.88,0,0,0-.69.91,1.24,1.24,0,0,1,.5,0,8.6,8.6,0,0,0,0,2.07,3.39,3.39,0,0,1-.7.93,1.92,1.92,0,0,1,1.26,1.32,5.05,5.05,0,0,0,.88,1.66l0,0c.16.23.35.46.52.69s.38.46.61.67a3.48,3.48,0,0,1-.08.54c.27-.06.39,0,.53,0,.3.44.49,1,.76,1.44.14,0,.49-.32.65-.25a4.53,4.53,0,0,0,1,.5c.38.2.72.47,1.15.66A31.12,31.12,0,0,0,142,59a2.67,2.67,0,0,1,0,.6c.3-.22.65,0,.92-.09a.43.43,0,0,0-.1.26c.85-.28.94.28,1.68.5.17,0,.34-.2.51-.26l.24.07c.8,1,1.7.67,2.67.7,1,.21,2,.43,3,.59C151.66,61.52,152,62.11,152.62,62.46Z"/><path class="cls-3" d="M131.16,51.92a10.13,10.13,0,0,0,.45,1.86C131.21,53.27,130.61,52.87,131.16,51.92Z"/><path class="cls-3" d="M137.25,36.58a3.56,3.56,0,0,0,1.41-.12,14.74,14.74,0,0,0-1.17,1l-1.11,1.06c-.62.71-1.34,1.43-1.81,2.11l0,0C135.13,39.4,137.42,38.26,137.25,36.58Z"/><path class="cls-3" d="M130.9,50.34l.16,0h0A.31.31,0,0,1,130.9,50.34Z"/><path class="cls-3" d="M135.26,27.5l.2-.15q-.63.71-1.28,1.37A6.13,6.13,0,0,1,135.26,27.5Z"/><path class="cls-3" d="M140.89,23.9c1-.78,2-1.54,3-2.29.73-.36,1.47-.71,2.22-1a15.12,15.12,0,0,1,2.32-.64C145.93,21.22,143.4,22.5,140.89,23.9Z"/><path class="cls-3" d="M140.76,34.19c.47-.15,1-.28,1.46-.4-.41.25-.77.52-1.15.79C141.05,34.41,140.87,34.3,140.76,34.19Z"/><path class="cls-3" d="M131.69,31.3,132,31l-.39,1C131.57,31.85,131.66,31.55,131.69,31.3Z"/><path class="cls-3" d="M145.38,32l-.94.49a2.51,2.51,0,0,0,.29-.66A1.54,1.54,0,0,0,145.38,32Z"/><path class="cls-3" d="M149.91,28.91a9.79,9.79,0,0,1,1.25-.65l-1.37,1C149.82,29.07,149.83,28.9,149.91,28.91Z"/><path class="cls-4" d="M233.05,61.09v.18a9.12,9.12,0,0,1-.39-1.71l-.5,1.26a2.79,2.79,0,0,0-.19,1c.08.6.59,1,2.16,1.23a3.38,3.38,0,0,0-1.62.86c-.31.29-.41.5-.2.51a3.81,3.81,0,0,1,.41.29,2.71,2.71,0,0,1,.3.29,2.62,2.62,0,0,0-.37-.4,2.62,2.62,0,0,1,.37.4,1.54,1.54,0,0,1,.29,1.89,3.36,3.36,0,0,1-1.69,1.2,8.63,8.63,0,0,0-.83.39c-.38.15-.75.35-1.21.5a11,11,0,0,1-1.36.42,5.16,5.16,0,0,1-1.15.18l-.51.05.62,0a10.71,10.71,0,0,1-1.45,1.79,2.33,2.33,0,0,0,.66.56l-.37,0c-.07.73-.78.95-1,1.33,0-.17-.07-.27-.25-.28a2.24,2.24,0,0,0-.59.05l.24.17c-1.5.33-3.08,1.07-4.4,1.4a1.14,1.14,0,0,1-.63-.08l-1,.56c-.38-.38-1.52,0-1.2-.39-.27.47-1,.62-1.47.89a2.09,2.09,0,0,0,.26.77l0,.1,0,.14L216,77l.16.58c.11.38.24.75.36,1.13a23,23,0,0,0,.9,2.2,14.55,14.55,0,0,0,2.9,3.93l.13-.12a7.88,7.88,0,0,0,1.37.88,1.6,1.6,0,0,1,.91,1c.89.22,1.69.84,2.65.56.54.61,1.13.63,1.75,1.24.32-.42.9.44,1-.09.31-.82-.21-.59,0-1.28l-.13.09a22.1,22.1,0,0,0-1-3.21l-.29-.72c-.08-.2-.25-.55-.2-.55l0-.35a.55.55,0,0,1-.44-.36,1.21,1.21,0,0,0-.19-.45l-.31-.36a1.45,1.45,0,0,1-.16-.21v-.12c0-.15,0-.33.09-.53s.44.15.7.3a1,1,0,0,1,.49-.29,3,3,0,0,0,.33-.16s.21-.1.38-.19l.5-.26h-.07c.7-.32,1.44-.09,2.14-.45-.05-.12.05-.18.08-.26.18.26,1.14-.48,2.05-1.35s1.75-1.86,2-1.76c.06-.07.11-.15.18-.21a9,9,0,0,1,1.3-.47c.46-.15.93-.33,1.39-.51a5.85,5.85,0,0,0,1.32-.7,3.27,3.27,0,0,0,1-1,6.57,6.57,0,0,0-.06-1.46c.41-.12,0-.46.21-.75.78-.12,1.14-.43,1.21-.62s-.16-.31-.47-.17c.14-.8.5-1.52.62-2.22,0-.34-.06-.67-.11-1s.14-.4.45-.5c-.13-.7.17-.47.35-1.2.45-.19-.74-1.74-.65-1.9l.08.1c0-.75.8-1.41.66-2.18-.1-2.19-1.23-4.27-2.07-6.09-.42.21.32.34-.23.65a12.18,12.18,0,0,1-.58-1.72,7.5,7.5,0,0,0-.81-1.73,2.48,2.48,0,0,1,0-.82c-.16-.44-.34,0-.51-.32l.28-.32c-.55-.1-.17-.84-.66-1-.13.11-.28,0-.4-.11.28-.35-.42-.32-.15-.62l0,0c-.08-.07-.15-.1-.2-.24s-.8,0-1.43,0a6.68,6.68,0,0,0-1.38.12l-.05-.11c-.27-.11-.51.15-.4.29l-.3-.16h0l-.3-.16a.4.4,0,0,1,.13-.43.67.67,0,0,1-.63-.08,5.89,5.89,0,0,1,1.14,1.7c-.26,0-.5-.32-.74-.37a2.77,2.77,0,0,0-1-1.15c-.11,0-.3.46-.48.2s-.27,0-.42-.33c.26-.13.48,0,.7.07.06-.4-.52-.4-.69-.55-.06.05-.19,0-.36,0a1.4,1.4,0,0,0-.52,0c.17-.38-.23-.26-.4-.48-.21-.05-.35.1-.27.24-.07.42.79.28.49.72-.06-.21-.45-.15-.65-.14,0,.23.14.18,0,.4-.22-.06-.44.22-.58,0,0-.06.13,0,.2,0-.14,0,.22-.39.64-.74s.88-.65.66-.6c0,.11-.45.42-.87.73s-.78.61-.69.62-.09.42.09.5l.18-.28a.56.56,0,0,1,.26.65c-.19,0,.06-.41.38-.77s.67-.66.47-.55l.14.12c-.17.14-.58.25-.73,0,0,.23-.21.3-.37.38l-.06,0c-.17.11-.41.06-.28.36.49,0,.33.57.21,1.16s-.18,1.22.16,1.29c-.32-.51.08-.52.42-.56a.93.93,0,0,0,.36.57c.19,0,.13-.18.18-.31a.51.51,0,0,1,.21.51c.19-.28.19.25.37.18s0-.14.16-.26a2.76,2.76,0,0,1,.68.32,1.75,1.75,0,0,1-.26,1.06c-.26-.17.32-.54,0-.6,0,.58-.33.08-.5.48,0,.28.21.29.37.3v-.08c.15,0,.47,0,.48.33-.12.17-.12.33-.23.34l.15.1s.1-.1.07-.16c.15-.1.19,0,.2.14s.27,0,.61,0,.71-.11.65-.06c.13.08,0,.36.2.28.06-.07-.32-.16-.71-.16s-.71,0-.62,0,.43.11.92.13.92.18.82.35a.23.23,0,0,0,.35-.06c.07.2-.33.26-.37.49,0,0,.07-.08.09-.05l-.11.28c.43,0,.38.57.91.51a3.54,3.54,0,0,1-.89.28l.06-.1c-.07,0-.22,0-.37.12,0,.22.12.29.4.28a1.58,1.58,0,0,1-.07.18l.06-.06c-.07.13-.09.13-.17.17l0,0c-.43.46.69.28.62.72.13,0,.09-.05.26,0a5.22,5.22,0,0,0-.06,1,.67.67,0,0,0,.57-.34l.05.26c-.74.16-.38.72-1.14.85-.12.14-.09.27.07.34s.44-.18.51,0a3.3,3.3,0,0,1-.19.49,2.44,2.44,0,0,1-.48.2c.4.13-.38.43-.24.64s.26.41.66.28C233.66,60.91,233.38,61,233.05,61.09Z"/><path class="cls-5" d="M213,58.29c-2.88,1.75-3,0-4.47.17l1-1.36c1.92-1.08,4.87-2.85,5.07-1.73A4.94,4.94,0,0,1,213,58.29Z"/><path class="cls-5" d="M212.81,52.71c-.2.23-.34.15-.54.38l-.16-1.4Z"/><path class="cls-5" d="M207,60.39l-1.11,1.06c-.35.13.18-.59.05-.67l-1.62.71C206.35,60.35,205.66,59.57,207,60.39Z"/><path class="cls-5" d="M187.51,67c-1.29,0,.12-1.4.23-2,.81-.43,1.86-.3,1.53.53A9.94,9.94,0,0,0,187.51,67Z"/><path class="cls-5" d="M200.13,66.19c-.17-1.21,2.86-2.7,2-3.32a2.05,2.05,0,0,0-1.25-.5l-1,1.46c-3.6,2.09.59-2.08-2.23-1.25-.45.38-.68.58-.78.86-.77,1.24-.3,1.24.66,1.21-3.14,2.4-3.6-.91-5.34.28-2.2,1.92.28,2.45.06,3.39-1-1.51-6.15.19-9.88,2.2a13.06,13.06,0,0,1-2.58,1.69c-.93.47-2,.93-2.91,1.3a34.85,34.85,0,0,0-6.09,2.68,62.09,62.09,0,0,1-7,.84l0-.28a.42.42,0,0,0-.06.27,3.62,3.62,0,0,0-1.6-.33l-.73,0c-.23,0-.46,0-.69,0-.91,0-1.69-.34-1.18-1.32l-.33.06c-.6-.23-.43-.42-.19-.59s.55-.41.5-.73c-.44-.16-.4-.84-.29-1.26s.09-.66-.79-.78c.13-.08.21,0,.34-.08a6.77,6.77,0,0,1-.15-.88c-.41-.08-.87-.36-1.35-.21.08-.26-.38-.58-.16-1,.34-1.2.87.08,1.34-.26.13-.79.26-1.62.47-2.44s.61-1.6,1-2.39a21.68,21.68,0,0,1,1.43-2.13,11.55,11.55,0,0,1,1.81-1.69.89.89,0,0,0,1,.05,4.38,4.38,0,0,0,1.16-.78c.4-.34.76-.77,1.12-1.16s.72-.72,1-1a3.91,3.91,0,0,0,1-.52,6.75,6.75,0,0,0,.91-.69c.58-.5,1-1.18,1.58-1.73a16.4,16.4,0,0,1,1.61-1.59,3.21,3.21,0,0,1,1.84-.67c-.36.77-1.21,1.12-1.85,1.57s-1.2.77-1,1.27l.77.07c1.28-.53,3.51-.84,3.7-2.23a3.7,3.7,0,0,1-1.67-.88c.44-.53.31-1,1-1.46,1-.59,2.3-.95,2.58-.26-.47.51-1.2.55-1.71.84.18.86,2,0,2.75.07-.91-.68-.71-1.48-.68-2.12s-.17-1.17-2-1a17.83,17.83,0,0,1,1.65-1.08c.2-.52-.1-.75-.64-.83a5.66,5.66,0,0,0-1,0c-.35,0-.72.08-1.07.13-1.42.17-2.72.26-1.47-1.34.13-.62-.57-.92.41-1.85a2.46,2.46,0,0,0-2.51.95c-.72-.38-2,.26-3.12.79s-2.21,1.11-2.77.37a7.12,7.12,0,0,1-3.82,2.74,13.22,13.22,0,0,0-4.32,2c-3.43,3.22-.3,1.93-.43,3.55a5.18,5.18,0,0,0-.67.53,6.52,6.52,0,0,0-.52.65,8.46,8.46,0,0,0-.78,1.4,8.66,8.66,0,0,0-.5,1.37l-.25,1.21c-.58,1-1.55,1.37-1.38.53a20.39,20.39,0,0,0-2,2.93,15.9,15.9,0,0,0-.91,1.57l-.75,1.67c-.24.57-.49,1.1-.71,1.73L148,70.2l-.52,2.34a10.93,10.93,0,0,0-.11,2.56,11.54,11.54,0,0,0,4.68,8.77,15,15,0,0,0,10,2.66c.32.06.64.1,1,.13s.67,0,.89.05a11.81,11.81,0,0,0,1.49-.05,26.29,26.29,0,0,0,2.8-.5,12.76,12.76,0,0,1,5.69-.31l-.7-.15c-.15-.18.28-.41.61-.61-.71-.18-1.39-.38-2-.61a14.39,14.39,0,0,0,3.19-.76c.33-.87,1.76-1.4,3.22-2a13.78,13.78,0,0,0,2.09-1.07,2.67,2.67,0,0,0,1.21-1.36c5-2.25,3.32-.55,8.44-2.85a60.24,60.24,0,0,1,7.89-6.35c1.08-.69,2.43-.82,2.44-.44,1.2-1,3-2.33,4.28-3.28C209.05,61,202.24,64.84,200.13,66.19Z"/><path class="cls-5" d="M162.78,65c.64.57,1.51-.32,2-.45l.1-.58c.56-1.25-.14-1.92-1.09-1.47a1.36,1.36,0,0,1-.21,1.27A5.19,5.19,0,0,1,162.78,65Z"/><path class="cls-5" d="M160.84,72.19l-.85.34a1.15,1.15,0,0,0,.44.26C160.9,72.41,160.81,72.32,160.84,72.19Z"/><path class="cls-5" d="M182.91,44.69a20.57,20.57,0,0,1-2.55.17,5.2,5.2,0,0,0-2.54.63l.89,1.29c2.2,0,4.51.39,6.83-.09C186.88,44.8,182.46,46.24,182.91,44.69Z"/><path class="cls-5" d="M177.71,43.31a12.35,12.35,0,0,1,6-2c1-.2,2.07-.32,3-.58a8.8,8.8,0,0,0,2.71-1.29,1.89,1.89,0,0,0-1.7-1.37,7.43,7.43,0,0,0-2.7.46c-1.94.71-3.93,1.77-5.35,1.64-.8.45-1.42.82-2.08,1.23s-1.35.89-2.31,1.45C174.07,44.05,176.67,43.51,177.71,43.31Z"/><path class="cls-5" d="M190.61,41a3.33,3.33,0,0,0,1.19-.3c.31-.31-.51-.54-.91-.76C190.43,39.94,189.34,40.77,190.61,41Z"/><path class="cls-6" d="M224.58,37a41.63,41.63,0,0,0-.62-6.7,11.37,11.37,0,0,0-.35-1.29c-.18-.51-.37-1-.57-1.44a9.78,9.78,0,0,0-1.43-2.3,24.78,24.78,0,0,0-5.52-4.44c-.55-.36-1.14-.71-1.71-1.05l-1.59-.85a24.58,24.58,0,0,0-3.28-1.35,74.32,74.32,0,0,0-17.16-3.29,66.41,66.41,0,0,0-8.8-.07c-.72,0-1.43.09-2.14.17s-1.4.15-2.09.26-1.37.2-2,.33-1.38.29-2.08.46c-.14-.57.62-1.66-.41-1.72-4.08.1-4.46-1-4.76-2.12-.16-.58,3-.81,1.86-1.12,1.51-.4,3.52-.94,4.75-1.31s1.73-.65.13-.7c-1.15-.43-5.12,1.12-6.36.57s.58-2-.69-2.56c-1.05.28-3.13.88-4.16,1.2-1.21-.25.53-2-.52-1.69A26.28,26.28,0,0,0,159.6,7.4,62.81,62.81,0,0,0,153.31,10c-.13-.26-.5-.41-.62-.64a.4.4,0,0,1,.08-.44,4.73,4.73,0,0,1,1.07-.81c2.47-1.12,4.73-2,7.05-2.8s4.62-1.57,7-2.27,4.73-1.36,7.36-1.89a60.61,60.61,0,0,1,7.85-1,72.78,72.78,0,0,1,15.53.64,67.93,67.93,0,0,1,15.22,4.05,54.78,54.78,0,0,1,7.35,3.63,67.41,67.41,0,0,1,6.59,4.42,29.73,29.73,0,0,1,3.47,3.16,22.57,22.57,0,0,1,3.09,4.2,26.24,26.24,0,0,1,2,4.5,25,25,0,0,1,1.09,4.9,42.73,42.73,0,0,1,.11,8.49c-.1,1.33-.25,2.64-.43,3.92s-.39,2.63-.73,4.1a28.66,28.66,0,0,1-1.44,4.52,27.62,27.62,0,0,1-2.27,4.24A37.51,37.51,0,0,1,227,61.45c-1.87,1.58-2.29,1.44-2.07.64a31.84,31.84,0,0,1,2.06-4c-.6,1.1-1.24.44-1.85,1.49-.31-.32-.31-1.15.11-2.32a27.09,27.09,0,0,1,2.4-4.7,29.5,29.5,0,0,1-2.07,2.69c-1,.63-.66-.58-1.12-1,.7-.81,1.35-1.68,1.11-1.85l-.95-.7a30.42,30.42,0,0,1-2.67,3.1c.72-.74,1.4-1.51,1.17-1.7l-.89-.77c.51-.84,1.33-1.72,2-2.67a8.38,8.38,0,0,0,1.49-2.86l-.82-.33c-.46.74-.93,1.69-1.5,2.65a19.8,19.8,0,0,1-1.85,2.63c.38-.92.14-1.09-.32-1.46.72-1.13,1.53-2.08,2.14-3.13a5.61,5.61,0,0,0,.87-3.54,16.74,16.74,0,0,1-.71,2.31c-.38-1-.09-2.19.26-3.85.17-.81.38-1.77.53-2.65A12.64,12.64,0,0,0,224.58,37Z"/><path class="cls-4" d="M193.88,79.62l.16,0a4.48,4.48,0,0,1-1.54,0,4.43,4.43,0,0,0,1.9,1.19c.53.05.93-.44,1.24-1.94a3.86,3.86,0,0,0,.58,1.69c.21.34.4.43.42.23a3.67,3.67,0,0,1,.52-.69,2.77,2.77,0,0,0-.35.36,2.77,2.77,0,0,1,.35-.36,1.31,1.31,0,0,1,1.58-.41c.45.23.76.71,1.26,1.41l.11.14.05.12a2.64,2.64,0,0,0,.13.24c.12.23.26.44.41.74a7.37,7.37,0,0,1,.42.9,3,3,0,0,1,.22.81c0,.13,0,.25.08.37v-.48a6.55,6.55,0,0,1,1.72.53,2.7,2.7,0,0,0,.48-.67v.29c.68-.18.94.3,1.3.38a.36.36,0,0,0-.24.51l.16-.17c.22.64.82,1.21,1.05,1.77,0,.08-.05.19-.14.28l.49.41c-.44.15-.17.6-.55.47.67.17.53.71,1.22.88a18,18,0,0,0,2.56,4.12l.16-.08c.41.47,1.42.79,1.25,1.54.68.39,1.12,1.07,2.11,1.16.19.6.7.8,1,1.4.46-.19.63.56,1,.24.63-.47.06-.46.56-.87l-.16,0a12.67,12.67,0,0,0,.45-5.39c-.68-1-.72-2.35-1.25-3.47a12.85,12.85,0,0,0-2.26-3.2c-.24-.18,0-.52.15-.83a29.59,29.59,0,0,0-2-2.92.18.18,0,0,1,0,.06c-.4-.48-.25-1.15-.67-1.62-.11.08-.17,0-.26,0,.21-.22-.56-.8-1.47-1.29s-1.86-.91-1.8-1.12l-.2-.09a6.37,6.37,0,0,1-.57-1c-.2-.36-.43-.74-.66-1.11a7.92,7.92,0,0,0-.59-.89,2.26,2.26,0,0,0-.79-.61,5.76,5.76,0,0,0-1.17.41c-.1-.34-.36.12-.58-.06-.2-1.46-.85-1.1-.62-.54-.62,0-1.16-.28-1.68-.36-.25,0-.5.11-.75.18s-.29-.13-.35-.44c-.52.13-.33-.17-.86-.34-.13-.48-1.31.67-1.43.53l.08-.06c-.57-.08-1-.9-1.54-.91-1.56-.19-3.12.37-4.41.51.08.46.26-.16.4.44-.77.07-1.65-.32-2.41-.21a1.84,1.84,0,0,1-.49-.4c-.28-.11-.09.25-.28.24l-.13-.4c-.17.4-.49-.35-.69-.12,0,.17,0,.21-.14.22-.12-.43-.25.1-.35-.29v0c-.05,0-.08,0-.16,0-.06.18-.62,1.61-.65,1.82l-.07-.06c-.13.05-.09.39,0,.44l-.17,0v0l-.17,0a.74.74,0,0,1-.15-.42c0,.18-.12.29-.24.24a6.21,6.21,0,0,1,1.15.81c-.07.18-.33,0-.43.09a2.63,2.63,0,0,0-.87-.51s.07.53-.1.35-.12.05-.29-.16c.05-.21.18-.16.29-.18-.14-.38-.34-.18-.46-.26,0,.13-.25.07-.35.22-.06-.39-.18-.2-.32-.38-.1,0-.11.15,0,.27.1.41.43.13.44.59-.1-.19-.25-.06-.33,0,.07.22.12.15.13.38-.12,0-.14.28-.27.07s.05,0,.09,0c-.14,0,.26-1.67.13-1.48.11.18-.34,1.55-.25,1.53s.07.42.18.47v-.3c.14,0,.31.42.32.58-.21,0,.06-1.68,0-1.4l.1.08c0,.17-.17.35-.32.14a.47.47,0,0,1-.05.43l0,0c0,.14-.17.12,0,.39.46-.18.42,2.31.91,2.29-.34-.42-.1-.51.08-.63a1,1,0,0,0,.42.45c.11-.08,0-.2,0-.33.1.09.26.14.32.4,0-.33.21.14.29,0s0-.13,0-.3a2.57,2.57,0,0,1,.52,0,2.35,2.35,0,0,1,.4,1c-.24,0-.1-.63-.31-.48.27.51-.16.21-.08.64.15.22.3.18.41.07l0-.06c.09-.11.28-.29.49,0,0,.2.13.33.06.4h.16c0-.07,0-.13-.05-.17s.13-.11.21,0,.57-1.09.59-1c.11,0,.22.26.27,0s-.86,1-.73.89c.15.2,1-1.38,1.15-1,.08,0,.17-.11.09-.31.17.06.06.41.22.57,0,0,0-.1,0-.1l.17.24c.13-.38.56,0,.68-.52a3.29,3.29,0,0,1-.08.9l-.05-.1a.59.59,0,0,0,0,.38c.17.1.28,0,.37-.2l.12.15,0-.08a.32.32,0,0,1,.08.23v0c.23.59.44-.52.77-.27.05-.1,0-.11,0-.25a3.6,3.6,0,0,0,.82.43.8.8,0,0,0-.15-.64l.22,0c0,.74.51.6.45,1.34.09.15.21.16.3,0s-.06-.47.08-.5a2.68,2.68,0,0,1,.37.32,2.83,2.83,0,0,1,.08.51c.18-.34.29.47.5.39s.39-.16.34-.57C193.8,79,193.85,79.29,193.88,79.62Z"/><rect class="cls-7" x="178.41" y="94.73" width="6.97" height="19.4" transform="translate(-26.51 80.79) rotate(-23.39)"/><g class="cls-8"><path class="cls-9" d="M177.55,95.74a3.84,3.84,0,0,1,1.1-.08c.09,0,0,.13.1.15.27-.12.4.21.64.07.1.23.46.31.62.52a.53.53,0,0,0,.37-.05c.11.17-.19.19-.21.34.48.37.56,1,1,1.38-.08,0-.15,0-.23,0s.06.17.09.3a.58.58,0,0,0,.57,0c0,.11,0,.28-.15.28l.35.84a2.46,2.46,0,0,1,.46.2c-.14.22-.26-.21-.42,0,0,.17.12.31.3.28.07.28-.26.73.22.79a2.39,2.39,0,0,1,.83,1.08,3,3,0,0,1-.63-.9l0,.26c-.11,0,0-.22-.13-.34,0,0-.13.15-.07.29s.09,0,.11-.08,0,.09,0,.14c-.25.14-.21-.27-.48-.23l-.27.12c.09-.17.29-.21.32-.43-.15,0-.28-.28-.41-.07.06.3-.46.52-.41.68s.23,0,.17.18c-.28-.06-.41.36-.7.27a.55.55,0,0,1,0-.4l-.3,0a.4.4,0,0,0-.34-.36c-.08,0-.1.15-.19.15-.42,0-.56-.54-.83-.58-.08.16,0,.31,0,.45,0-.45-.54,0-.53-.47-.22.08,0,.52-.3.47a.34.34,0,0,1,.12-.34c0-.05-.12-.07-.2-.08s0,.37-.23.34a.79.79,0,0,0,0-.42c-.2.07-.33-.27-.54-.09.05.16-.07.43-.24.37s.32-.59-.07-.69c0-.08-.18-.16-.18,0,0,.27-.32.39-.44.61a1.15,1.15,0,0,1,.23-.62c-.18-.21,0-.51-.13-.76s-.26.07-.43.13a5.71,5.71,0,0,0,.29-1.53l-.27-.12c.31-.19.22-.44.46-.69,0-.13-.13,0-.17-.14.28-.05.13-.4.41-.39l-.09-.16c.18,0,.35-.19.25-.34A.48.48,0,0,0,177.55,95.74Z"/><polygon class="cls-10" points="176.72 97.61 176.73 97.56 176.75 97.6 176.72 97.61"/><path class="cls-10" d="M176.77,97.74l-.08.07,0,0-.12,0C176.68,97.87,176.67,97.71,176.77,97.74Z"/><path class="cls-10" d="M177.26,98.19c-.07,0,0,0,0,0A0,0,0,0,1,177.26,98.19Z"/><path class="cls-10" d="M176.59,98.45s0,0,0,.06S176.53,98.44,176.59,98.45Z"/><polygon class="cls-10" points="176.72 98.5 176.65 98.42 176.68 98.41 176.72 98.5"/><path class="cls-10" d="M177,98.47c-.12,0,0,0,0-.06Z"/><path class="cls-10" d="M176.76,98.68c.13.13-.12.23-.06.37,0-.12-.06-.3-.19-.23C176.75,98.85,176.54,98.63,176.76,98.68Z"/><path class="cls-10" d="M177.09,98.65c-.05,0-.06-.06-.08-.11C177,98.65,177.07,98.53,177.09,98.65Z"/><polygon class="cls-10" points="176.91 98.72 176.93 98.68 176.99 98.71 176.91 98.72"/><path class="cls-10" d="M176.85,98.77l0,.05Z"/><path class="cls-10" d="M176.6,99l-.12.05C176.47,98.93,176.55,98.95,176.6,99Z"/><path class="cls-10" d="M176.95,98.78c.07.11.09.12,0,.17,0-.22-.18.09-.15-.06v0C176.91,98.9,176.89,98.8,176.95,98.78Z"/><path class="cls-10" d="M177.09,98.81l0,.08Z"/><polygon class="cls-10" points="176.68 99.19 176.6 99.09 176.66 99.12 176.68 99.19"/><path class="cls-10" d="M177,99c.06-.1,0,.09.15,0-.12.1-.13.07-.22,0S177,99,177,99Z"/><polygon class="cls-10" points="176.81 99.22 176.84 99.15 176.87 99.17 176.81 99.22"/><polygon class="cls-10" points="177.28 99.01 177.31 99.06 177.22 98.99 177.28 99.03 177.28 99.01"/><path class="cls-10" d="M176.83,99.46s0,0,0,0l-.05-.08Z"/><path class="cls-10" d="M177.16,99.32s.26.07.08.15l0-.09c-.12,0-.11.17-.11.17v-.16h0c-.05,0-.06-.08-.07-.11S177.11,99.32,177.16,99.32Z"/><polygon class="cls-10" points="177.65 99.23 177.59 99.21 177.65 99.22 177.65 99.23"/><polygon class="cls-10" points="177.06 99.65 177.1 99.62 177.13 99.73 177.06 99.65"/><path class="cls-10" d="M176.89,99.89h0Z"/><path class="cls-10" d="M177.51,99.71a.83.83,0,0,1,0,.22C177.54,99.86,177.43,99.72,177.51,99.71Z"/><path class="cls-10" d="M177.31,100c.05,0,0-.06,0-.1l0,.11Z"/><path class="cls-9" d="M181.91,98.11c.06.06,0,.15-.05.13s-.19,0-.26-.1S181.83,98.08,181.91,98.11Z"/><path class="cls-9" d="M183.23,99.83c.21.16.6.08.64.39,0,.07-.14.13-.2.09-.37-.18-1-.34-.83-.88C183,99.44,183.16,99.66,183.23,99.83Z"/><path class="cls-9" d="M178.22,102.34c0,.05,0,.16-.1.15C178.29,102.42,178,102.38,178.22,102.34Z"/><polygon class="cls-9" points="178.02 102.63 177.99 102.55 177.98 102.63 178.02 102.63"/><path class="cls-10" d="M181.16,101.33c-.05,0-.07.14-.16.14S181.12,101.32,181.16,101.33Z"/><polygon class="cls-11" points="182.42 100.91 182.37 100.84 182.39 100.85 182.42 100.91"/><path class="cls-9" d="M180.6,102.54l-.06.06s0-.11,0-.12l0,.07c-.06.06,0-.07-.07-.12S180.62,102.42,180.6,102.54Z"/><path class="cls-9" d="M180.42,102.64l0,.08Z"/><path class="cls-9" d="M180.51,103.14c-.12-.06,0-.1,0-.2l.08.09.06-.33A.48.48,0,0,1,180.51,103.14Z"/><path class="cls-9" d="M180.08,103.11c0,.16.06.35,0,.53a.51.51,0,0,1-.1-.64Z"/><polygon class="cls-10" points="179.99 103.15 179.99 103.17 179.98 103.06 180.06 103.21 179.99 103.15"/><rect class="cls-9" x="183.31" y="101.76" width="0.02" height="0.08" transform="translate(-25.35 81.14) rotate(-23.39)"/><path class="cls-10" d="M180.05,103.32s0,.09,0,.17S179.9,103.3,180.05,103.32Z"/><path class="cls-9" d="M183.17,102l.07.08Z"/><path class="cls-9" d="M183.71,102.39a1,1,0,0,1-.13-.27Z"/><path class="cls-9" d="M183.44,102.23l.06,0Z"/><path class="cls-9" d="M182.25,103c-.16,0-.08.27,0,.3-.13-.09-.06-.26,0-.37Z"/><polygon class="cls-9" points="182.25 103.09 182.26 103.05 182.29 103.13 182.25 103.09"/><path class="cls-9" d="M183.85,102.56a.16.16,0,0,1-.09.08s.08-.18,0-.22C183.8,102.42,183.83,102.5,183.85,102.56Z"/><path class="cls-9" d="M182.34,103.45c0,.05-.15,0-.14-.07l.07,0c.08,0,0-.11,0-.16S182.32,103.39,182.34,103.45Z"/><path class="cls-9" d="M182.75,103.8l0,.07c-.09,0-.15-.06-.16-.11S182.69,103.71,182.75,103.8Z"/><path class="cls-9" d="M180.93,105.57s0-.05-.05-.08S180.92,105.54,180.93,105.57Z"/><path class="cls-9" d="M181,105.76v0Z"/><path class="cls-9" d="M181.06,106.28c0,.05-.06.12-.11.08S181,106.24,181.06,106.28Z"/><path class="cls-9" d="M184.34,108.45s0,.07,0,.08l-.11-.26.2.2Z"/><rect class="cls-9" x="184.53" y="108.93" width="0.03" height="0.13" transform="translate(-28.1 82.22) rotate(-23.39)"/><path class="cls-9" d="M184.81,108.9V109c-.06,0-.06-.06-.05-.12A.09.09,0,0,1,184.81,108.9Z"/><path class="cls-9" d="M184.74,109.41l0,0s0,.09,0,.13l-.17-.31C184.71,109.28,184.69,109.33,184.74,109.41Z"/><path class="cls-9" d="M184.92,109.66c-.13,0,.05-.17-.06-.26C184.82,109.5,185.08,109.53,184.92,109.66Z"/><path class="cls-9" d="M186.57,112.88l0,.08a.11.11,0,0,1-.19-.1C186.47,112.85,186.53,112.84,186.57,112.88Z"/></g><rect class="cls-7" x="164.13" y="83.58" width="33.08" height="17.36" transform="translate(-14.99 145.82) rotate(-42.36)"/><g class="cls-12"><path class="cls-13" d="M195.36,83.82c.18,0,.39.23.22.39,0-.33-.21-.16-.34-.11l.05.06c-.13,0-.23-.17-.29-.09.18-.06.23-.39,0-.42s-.18.06-.28.19l.13,0c-.09-.06-.33.09-.36-.09-.48.16-.34.8-.61,1.11.16-.28,0-.45.16-.73a1.57,1.57,0,0,1,1-.62C195.19,83.63,195.68,83.71,195.36,83.82Z"/><path class="cls-13" d="M195.18,85c-.13.16-.48.27-.6.17.42.27.32-.56.68-.31a4.63,4.63,0,0,1,.37-.54C195.41,84.48,195.57,84.92,195.18,85Z"/><path class="cls-13" d="M194.45,85.14a.23.23,0,0,1-.19.17l.18-.26S194.29,85.15,194.45,85.14Z"/><path class="cls-13" d="M194,85.1c0-.18.11-.1.26-.17Z"/><path class="cls-13" d="M195.4,88.15a1.36,1.36,0,0,1-.69.91l-.57.17c0-.2-.13-.33-.25-.16a.29.29,0,0,0,.11.35c-.13,0-.12.28-.32.22a1.17,1.17,0,0,1,.4,1.2l-.27,0c.32.61-.36.67-.45,1.21-.14,1.06-.77.18-.94,1.21,0-.22,0-.6-.36-.43s0,.51-.23.69c-.34-.18.25-1.09-.51-.78-.21.23-.55.19-.81.29-.31.73-1.32.86-1.37,1.8.09-.39-.31-.27-.49-.38-.44.16-.43.6-.67.86-.18-.12-.31.11-.45-.15a7.22,7.22,0,0,0,1.15-1.4c-.17-.22-.15-.59-.5-.51-.79.16-1.87.08-2.36.45,1-.8,1.84-1.82,2.82-2.68-.33-.59-.6.48-.88.14.27-.35,0-.58-.14-.91l.91-.86c0-.18-.12-.2-.17-.33.15-.55,1.06-.24,1.09-.93.41-.23.81,0,1.17-.31-.07-.38-.33.17-.6.06,0-.2.42-.18.35-.45-.38-.11-.87.34-1.08-.12.33-.06,0-.41.3-.55-.1-.26-.32-.09-.42,0,0-.27.37-.24.4-.43-.14-.15-.44.2-.35-.16a.55.55,0,0,0,.38-.31c-.12-.17-.27.08-.4,0,.8-.42,1.35-1.37,2.36-1.32a1.47,1.47,0,0,1,1.08.5c0,.31.41.87,0,1.14a1.52,1.52,0,0,1-.42.83c.18,0,.49,0,.57.24-.42.38-1,0-1.46.33.3.1.69.38,1,.19.35.16.38.76.83.56a.51.51,0,0,0,0,.23,3.68,3.68,0,0,0,.47.06,1.19,1.19,0,0,1,1.14-1.18A.63.63,0,0,1,195.4,88.15Z"/><path class="cls-10" d="M195.3,88.24c-.27.08-.17.23-.29.44v-.09c-.31,0,0,.47-.4.33-.07,0,.15-.1,0-.18s0,.18-.15.14a1.06,1.06,0,0,0,.09-.36c-.18-.08-.24-.23-.42-.38l.06.22c0-.16-.17-.15-.3-.25.15-.21.37-.2.58-.43-.21.23.16,0,.24.19-.12-.17.07-.3.15-.21l-.06.05.19.1,0,0c.39.13-.26.06,0,.25l.19-.17Z"/><path class="cls-14" d="M194.79,88.09c.07.08.09,0,.16.1-.11,0,0,.05,0,.09-.29,0,0-.24-.28-.27a.23.23,0,0,1,.19-.17C194.92,88,194.83,87.94,194.79,88.09Z"/><path class="cls-14" d="M194.46,88s.22-.13.14-.19l0,.27Z"/><path class="cls-10" d="M191.58,85.06c-.31.08-.38,0-.78.06,0,.13.25.12.06.26v-.11c-.45-.15-.12.56-.56.44l.07,0c-.19.17-.2,0-.41.31.15-.17,0-.25-.11-.35.25,0,.26-.48.58-.32l-.06.16c.28-.11.39-.6.53-.59l0,.09c.22-.06.67,0,.59-.23C191.48,84.91,191.47,85.06,191.58,85.06Z"/><polygon class="cls-10" points="193.95 88.23 194.07 88.25 193.98 88.38 193.95 88.23"/><path class="cls-10" d="M191.27,85.44h.07c-.2.32-.12-.24-.35-.16C191.17,85.3,191.24,85.23,191.27,85.44Z"/><polygon class="cls-10" points="191.02 85.43 190.89 85.41 191 85.38 191.02 85.43"/><polygon class="cls-10" points="190.41 85.26 190.49 85.12 190.52 85.27 190.41 85.26"/><polygon class="cls-10" points="190.53 85.81 190.61 85.7 190.59 85.76 190.53 85.81"/><polygon class="cls-10" points="190.54 85.97 190.69 85.8 190.63 85.89 190.54 85.97"/><path class="cls-14" d="M190.19,85.63l.09.09Z"/><polygon class="cls-10" points="190.48 86.02 190.44 86.09 190.44 85.89 190.43 86.04 190.48 86.02"/><path class="cls-10" d="M190.46,86.22l-.17.19Z"/><polygon class="cls-10" points="189.76 85.68 189.8 85.61 189.81 85.63 189.76 85.68"/><polygon class="cls-10" points="189.95 86.2 190.14 86.1 190.15 86.12 189.95 86.2"/><path class="cls-10" d="M189.68,85.75c-.09.09,0,0,0-.07S189.7,85.73,189.68,85.75Z"/><path class="cls-10" d="M189.59,86.15l0,.15.15-.14c0,.29-.17.08-.31,0,.15-.1.21-.23.41-.16A.43.43,0,0,0,189.59,86.15Z"/><path class="cls-10" d="M190,86.33c-.09.05,0,0,0-.07S190,86.29,190,86.33Z"/><path class="cls-10" d="M189.82,86.59c-.11.07-.07,0,0-.06S189.83,86.55,189.82,86.59Z"/><polygon class="cls-13" points="187.19 88.1 187.15 87.99 187.22 88.06 187.19 88.1"/><rect class="cls-10" x="188.67" y="89.93" width="0.08" height="0.03" transform="translate(-11.33 150.64) rotate(-42.36)"/><path class="cls-10" d="M188.84,93.33s-.06,0-.07,0,.08-.18.15-.17S188.81,93.26,188.84,93.33Z"/><path class="cls-10" d="M188.21,93c0-.05-.1-.15-.19-.1C188.11,92.72,188.16,92.85,188.21,93Z"/><path class="cls-10" d="M187.72,93.08v0Z"/><path class="cls-13" d="M185.27,94.62c-.68.31-.9,1-1.33,1.42a1.06,1.06,0,0,1-.7,1.05c.06-.12.43-.25.26-.44-.31.42-.26-.14-.56.34l.16.17c-.58,0-1.11-.2-1.54.44a7.72,7.72,0,0,1-1.19,1c-.21.15-.22,0-.28-.19.58-.88,1.83-1.26,2.13-2.18.26-.62.83,0,1.18-.42-.05-.06-.09,0-.13,0,.24-.12-.26-.32.07-.34-.37.13-.81,0-1.1.31a24.11,24.11,0,0,0,3.47-1.92C185.69,94.16,185.24,94.27,185.27,94.62Z"/><rect class="cls-15" x="184.37" y="95.07" width="0.13" height="0.03" transform="translate(-15.91 149.1) rotate(-42.36)"/><path class="cls-13" d="M181.73,92.59c-.29.48-.85.32-1.29.48,0-.2.18-.34.15-.52,0,.13,0,.15.13.26l0,0c-.07,0-.09.09-.08.14a.82.82,0,0,0,.67,0v-.22l.06.18c.17-.16.4-.33.42-.56-.18,0-.45-.15-.38-.38C181.69,92,182,92.27,181.73,92.59Z"/><path class="cls-15" d="M184.16,95.56c-.15-.21.19-.1.12-.32C184.44,95.37,184.13,95.52,184.16,95.56Z"/><path class="cls-13" d="M180.77,92.29c.18-.06.25-.33.49-.34C180.94,92,181.09,92.27,180.77,92.29Z"/><path class="cls-15" d="M183.8,95.65v-.11c-.11.14-.3-.14-.35.15.05,0,.07,0,.12.06-.28.08-.18-.32-.06-.36,0,.15.25,0,.34,0-.07-.11-.08-.31.17-.26C184,95.21,183.81,95.43,183.8,95.65Z"/><polygon class="cls-13" points="180.63 92.48 180.73 92.33 180.74 92.42 180.63 92.48"/><path class="cls-15" d="M183.71,95.67v0Z"/><polygon class="cls-15" points="183.4 96.32 183.4 96.12 183.43 96.2 183.4 96.32"/><path class="cls-16" d="M183,95.78c-.12-.1-.22.14-.23-.06C182.93,95.61,183,95.87,183,95.78Z"/><path class="cls-15" d="M182.92,96.24c-.1-.19,0-.09.17-.26Z"/><polygon class="cls-15" points="183.53 96.62 183.66 96.61 183.61 96.62 183.53 96.62"/><path class="cls-15" d="M183.25,96.46l0,0-.12.25c-.32-.23.14-.23.18-.37C183.24,96.33,183.35,96.41,183.25,96.46Z"/><polygon class="cls-15" points="182.69 96.14 182.82 96.06 182.78 96.17 182.69 96.14"/><polygon class="cls-15" points="182.85 96.93 182.94 96.88 182.9 96.99 182.85 96.93"/><path class="cls-13" d="M181.77,96.39c-.3.28-.61.59-1.07.46-.12-.1-.36-.05-.46-.24a1.29,1.29,0,0,1,.46-.94.93.93,0,0,1,.87-.14C182,95.71,181.86,96.11,181.77,96.39Z"/><path class="cls-13" d="M179,94.07c-.1.12-.29.06-.42,0a.39.39,0,0,1,0-.41C178.94,93.4,179.28,93.85,179,94.07Z"/><path class="cls-15" d="M181,96.15l-.08-.24C181,96.07,181.21,95.93,181,96.15Z"/><polygon class="cls-15" points="181.83 97.14 181.98 97.07 181.97 97.14 181.83 97.14"/><path class="cls-15" d="M181.07,96.3c.11,0,0,.47.26.25,0,.18-.37.09-.35.15l.1-.19c-.22,0-.17.19-.38.07v-.22c.28.12.16.13.38-.07Z"/><path class="cls-15" d="M180.62,96.3l-.05.32c-.17-.23.16-.35-.1-.49.14.08.32-.22.42,0C180.73,96.27,180.85,96.29,180.62,96.3Z"/><polygon class="cls-15" points="181.56 97.48 181.65 97.36 181.61 97.47 181.56 97.48"/><rect class="cls-15" x="181.3" y="97.43" width="0.13" height="0.03" transform="translate(-18.3 147.64) rotate(-42.36)"/><path class="cls-13" d="M174.11,91.48c-1.11.6-2.3.06-3.48.06-.15-.17,0-.35.08-.45.5-.25,1.06.14,1.58-.2a2.61,2.61,0,0,1,1.91.2A.28.28,0,0,1,174.11,91.48Z"/><path class="cls-15" d="M180.49,98.18c.06-.05.16.06.08.13s-.35-.2-.08-.31Z"/><path class="cls-15" d="M180.33,98.5c-.33,0,.08-.14-.15-.24A.15.15,0,0,1,180.33,98.5Z"/><path class="cls-13" d="M174.69,95c-.1.3-.52.3-.75.27.26-.24.48-.12.63-.22v0c.09,0,.13-.09.1-.12s-.24,0-.32-.12c.17-.08,0-.2.18-.26-.12-.2-.38,0-.51,0,.05.06-.27.42-.09.74l-.35.11c-.12-.24.25-.26.15-.55a.94.94,0,0,1,.87-.45C174.81,94.57,174.81,94.78,174.69,95Z"/><path class="cls-17" d="M174.61,94.76c0-.07-.08-.17,0-.18Z"/><path class="cls-13" d="M168,96.77c-.26.51-.83.31-1.22.45.23-.24.21-.61.53-.79s.39-.18.56-.06S168,96.64,168,96.77Z"/><path class="cls-10" d="M167.84,96.78a1.7,1.7,0,0,0-.58.35c-.27,0,0-.4-.25-.08,0-.13.23-.24.16-.43.25.16.42-.07.5-.21C167.89,96.49,167.79,96.65,167.84,96.78Z"/><path class="cls-13" d="M164.56,97.81a1,1,0,0,1-1,.28c-.1-.22.11-.45.27-.66.22,0,.35-.18.6-.06A.36.36,0,0,1,164.56,97.81Z"/><path class="cls-10" d="M164.27,97.45c0,.14.23.07.08.24l-.09,0c0-.05,0-.24.06-.23A.09.09,0,0,0,164.27,97.45Z"/><path class="cls-10" d="M164,97.56c0-.06,0-.18.11-.1Z"/><path class="cls-10" d="M164,98c.12-.36-.33.09-.3-.25l.14.08v0c.15-.07.23.1.28.19Z"/><path class="cls-13" d="M164.64,95.85c-.17.15-.62.39-.73.07s.18-.41.38-.49a.49.49,0,0,1,.36,0C164.8,95.57,164.72,95.75,164.64,95.85Z"/><path class="cls-10" d="M164.25,95.58c0,.14.21.08.28.19l-.21.19c.18-.34-.24.12-.3-.18s.1-.19.3-.28Z"/></g><path d="M14.79,71.79q-7.08,0-10.93-4.15T0,55.88q0-7.59,3.93-11.77T15,39.92a41.16,41.16,0,0,1,9.56,1.33v4q-6.23-2.15-9.62-2.15a9.28,9.28,0,0,0-7.65,3.34q-2.71,3.34-2.71,9.43,0,5.8,2.89,9.16a9.88,9.88,0,0,0,7.9,3.35,19.62,19.62,0,0,0,9.23-2.65v3.69A21.06,21.06,0,0,1,14.79,71.79Z"/><path d="M30.84,71V40.68h4.22L50.35,64.12V40.68H54V71h-4.2L34.54,47.59V71Z"/><path d="M74.87,71.79q-7.08,0-10.93-4.15T60.09,55.88q0-7.59,3.93-11.77t11.06-4.18a41.16,41.16,0,0,1,9.56,1.33v4Q78.4,43.14,75,43.14a9.28,9.28,0,0,0-7.65,3.34q-2.71,3.34-2.71,9.43,0,5.8,2.89,9.16a9.88,9.88,0,0,0,7.9,3.35,19.62,19.62,0,0,0,9.23-2.65v3.69A21.06,21.06,0,0,1,74.87,71.79Z"/><path d="M90.93,71V40.68h9.19q4.37,0,6.7,1.93a6.85,6.85,0,0,1,2.33,5.6q0,6.07-6.13,8.61L113.14,71h-5.29L99.22,58.19h-4V71ZM95.2,55h1.39q8.12,0,8.12-6.38,0-4.7-6.81-4.7H95.2Z"/></g></g></svg>